<?xml version="1.0" encoding="UTF-8"?>
<svg id="Layer_1" data-name="Layer 1" xmlns="http://www.w3.org/2000/svg" viewBox="0 0 302.33 275.28">
  <defs>
    <style>
      .cls-1 {
        fill: #e6e6e6;
      }

      .cls-2 {
        fill: #0197f6;
      }
    </style>
  </defs>
  <path class="cls-1" d="M125.92,81.74h2.55c.52,0,.94-.42.94-.94v-8c0-.25.2-.45.45-.45h9.68c.25,0,.45.2.45.45v5.46c0,.25-.14.47-.36.58-8.01,4.11-13.48,12.45-13.48,22.07,0,13.75,11.27,24.92,25.02,24.8,13.59-.12,24.57-11.17,24.57-24.79,0-9.53-5.38-17.81-13.26-21.96-.22-.11-.35-.33-.35-.58v-5.58c0-.25.2-.45.45-.45h9.46c.25,0,.45.2.45.45v8c0,.52.42.94.94.94h2.55c.43,0,.8-.31.88-.73l2.75-14.92c.1-.55-.32-1.06-.88-1.06h-23.93v18.32c0,.3.2.56.48.63,7.63,1.95,13.25,8.92,13.14,17.18-.13,9.58-8.05,17.32-17.63,17.24-9.58-.08-17.33-7.88-17.33-17.48,0-8.23,5.68-15.13,13.34-16.98.29-.07.49-.33.49-.63v-18.27s-24.13,0-24.13,0c-.56,0-.98.51-.88,1.06l2.75,14.92c.08.43.45.73.88.73Z"/>
  <g>
    <path class="cls-1" d="M73.73,171.86c-3.62,0-6.72-.63-9.3-1.9-2.58-1.27-4.56-3.17-5.94-5.7-1.38-2.53-2.07-5.71-2.07-9.52s.69-6.98,2.07-9.5c1.38-2.52,3.36-4.41,5.94-5.67,2.58-1.27,5.68-1.9,9.3-1.9s6.72.63,9.3,1.9c2.58,1.27,4.56,3.16,5.94,5.67,1.38,2.52,2.07,5.68,2.07,9.5s-.69,6.99-2.07,9.52c-1.38,2.53-3.36,4.43-5.94,5.7-2.58,1.27-5.68,1.9-9.3,1.9ZM73.73,165.13c1.38,0,2.6-.21,3.65-.63,1.06-.42,1.95-1.03,2.67-1.83.72-.8,1.26-1.78,1.61-2.93.35-1.15.53-2.45.53-3.89v-2.12c0-1.47-.18-2.79-.53-3.94-.35-1.15-.89-2.13-1.61-2.93-.72-.8-1.61-1.41-2.67-1.83-1.06-.42-2.28-.63-3.65-.63s-2.64.21-3.7.63c-1.06.42-1.94,1.03-2.64,1.83-.71.8-1.23,1.78-1.59,2.93-.35,1.15-.53,2.47-.53,3.94v2.12c0,1.44.18,2.74.53,3.89.35,1.15.88,2.13,1.59,2.93.7.8,1.59,1.41,2.64,1.83,1.06.42,2.29.63,3.7.63Z"/>
    <path class="cls-1" d="M96.81,171.28v-33.03h12.55l3.99,14.71c.16.51.35,1.21.58,2.09.22.88.45,1.8.67,2.76.22.96.42,1.83.58,2.6h.38c.13-.61.29-1.34.48-2.19.19-.85.4-1.75.63-2.69.22-.95.43-1.82.63-2.62l4.04-14.67h12.21v33.03h-8.37v-14.09c0-1.38,0-2.77.02-4.18.02-1.41.04-2.69.07-3.85.03-1.15.05-1.99.05-2.5h-.38c-.1.48-.25,1.18-.46,2.09-.21.91-.43,1.86-.67,2.84-.24.98-.46,1.82-.65,2.52l-4.81,17.17h-6.92l-4.86-17.17c-.16-.64-.35-1.41-.58-2.31-.22-.9-.44-1.81-.65-2.74-.21-.93-.39-1.71-.55-2.36h-.38c.03.83.06,1.85.1,3.05.03,1.2.06,2.45.1,3.75.03,1.3.05,2.52.05,3.68v14.09h-7.84Z"/>
    <path class="cls-1" d="M140.85,171.28v-33.03h27.26v6.73h-18.66v6.2h16.3v6.59h-16.3v6.78h18.99v6.73h-27.6Z"/>
    <path class="cls-1" d="M189.42,171.86c-5.32,0-9.37-1.41-12.14-4.23-2.77-2.82-4.16-7.12-4.16-12.89,0-3.81.68-6.98,2.04-9.5,1.36-2.52,3.35-4.41,5.96-5.67,2.61-1.27,5.76-1.9,9.45-1.9,2.21,0,4.3.26,6.25.77,1.96.51,3.69,1.27,5.19,2.28,1.51,1.01,2.68,2.28,3.51,3.8.83,1.52,1.25,3.31,1.25,5.36h-8.46c0-.87-.19-1.64-.58-2.33-.38-.69-.92-1.27-1.61-1.73-.69-.46-1.48-.82-2.38-1.06-.9-.24-1.84-.36-2.84-.36-1.47,0-2.78.19-3.92.58-1.14.38-2.08.98-2.81,1.78-.74.8-1.29,1.78-1.66,2.93-.37,1.15-.55,2.5-.55,4.04v2.12c0,2.05.32,3.77.96,5.14.64,1.38,1.61,2.41,2.91,3.1,1.3.69,2.89,1.03,4.78,1.03,1.47,0,2.8-.22,3.97-.67,1.17-.45,2.1-1.1,2.79-1.95.69-.85,1.03-1.87,1.03-3.05v-.24h-8.9v-6.06h17.26v18.13h-5l-.82-3.46c-.99.9-2.06,1.65-3.2,2.26-1.14.61-2.39,1.06-3.75,1.35-1.36.29-2.89.43-4.59.43Z"/>
    <path class="cls-1" d="M210.33,171.28l12.41-33.03h10.34l12.41,33.03h-9.18l-1.97-5.72h-13.18l-1.97,5.72h-8.85ZM223.22,159.12h8.99l-2.36-6.97c-.13-.35-.28-.79-.46-1.32-.18-.53-.35-1.09-.53-1.68-.18-.59-.35-1.19-.5-1.8-.16-.61-.32-1.14-.48-1.59h-.34c-.13.61-.31,1.3-.55,2.07-.24.77-.48,1.54-.72,2.31s-.46,1.44-.65,2.02l-2.4,6.97Z"/>
  </g>
  <g>
    <path class="cls-2" d="M96.81,187.68v-7.73h1.45v6.45h4.87v1.28h-6.32Z"/>
    <path class="cls-2" d="M103.82,187.68l3.9-7.73h1.65l3.9,7.73h-1.6l-.83-1.67h-4.7l-.83,1.67h-1.5ZM106.73,184.82h3.53l-1.02-2.1c-.04-.08-.09-.2-.16-.35-.07-.15-.14-.31-.21-.48-.07-.16-.14-.31-.2-.44-.06-.13-.1-.21-.12-.24h-.09c-.07.15-.15.32-.24.52-.09.2-.18.39-.26.57-.08.18-.15.32-.2.43l-1.02,2.09Z"/>
    <path class="cls-2" d="M114.76,187.68v-7.73h5.76c.43,0,.8.08,1.13.24.33.16.58.37.76.65.18.28.27.61.27.99,0,.3-.06.57-.17.82-.11.24-.27.45-.46.61-.19.17-.42.29-.68.37v.05c.3.06.56.17.79.34.23.17.41.39.54.65.13.26.2.57.2.92,0,.48-.11.87-.32,1.18s-.5.54-.86.69c-.36.15-.76.23-1.2.23h-5.76ZM116.21,183.14h3.8c.23,0,.44-.04.61-.12s.32-.2.42-.35c.1-.15.15-.33.15-.53,0-.33-.1-.57-.29-.73-.19-.15-.44-.23-.76-.23h-3.94v1.97ZM116.21,186.45h4.05c.34,0,.62-.08.84-.25.21-.17.32-.43.32-.79,0-.23-.05-.42-.14-.58s-.23-.28-.41-.37c-.18-.08-.4-.12-.65-.12h-4.01v2.1Z"/>
    <path class="cls-2" d="M129.32,187.81c-1.01,0-1.89-.15-2.62-.46-.74-.31-1.3-.76-1.7-1.36-.4-.6-.6-1.32-.6-2.18s.2-1.6.6-2.19c.4-.59.96-1.04,1.7-1.35.73-.31,1.61-.47,2.62-.47s1.9.16,2.64.47c.74.31,1.3.76,1.7,1.35.39.59.59,1.32.59,2.19s-.2,1.58-.59,2.18c-.39.6-.96,1.05-1.7,1.36-.74.31-1.62.46-2.64.46ZM129.33,186.58c.49,0,.94-.05,1.36-.16s.78-.27,1.09-.48c.31-.22.55-.5.73-.83.17-.34.26-.73.26-1.18v-.26c0-.44-.09-.83-.26-1.16-.17-.33-.41-.61-.73-.83-.31-.22-.68-.38-1.09-.48s-.87-.16-1.36-.16-.95.05-1.37.16c-.42.11-.78.27-1.09.48-.31.22-.55.49-.72.83s-.25.72-.25,1.16v.26c0,.45.08.84.25,1.18.17.34.41.62.72.83.31.22.68.38,1.09.48.42.11.87.16,1.37.16Z"/>
    <path class="cls-2" d="M136.23,187.68v-7.73h5.95c.52,0,.96.11,1.31.32.35.21.61.5.78.86s.26.76.26,1.2c0,.46-.12.9-.37,1.29-.24.4-.61.7-1.1.9l1.65,3.16h-1.63l-1.47-2.89h-3.94v2.89h-1.45ZM137.68,183.57h4.13c.39,0,.69-.11.91-.34.22-.23.33-.52.33-.88,0-.25-.05-.46-.14-.63-.09-.17-.23-.31-.42-.4-.19-.09-.41-.14-.68-.14h-4.13v2.4Z"/>
    <path class="cls-2" d="M145.63,187.68l3.9-7.73h1.65l3.9,7.73h-1.6l-.83-1.67h-4.7l-.83,1.67h-1.5ZM148.55,184.82h3.53l-1.02-2.1c-.04-.08-.09-.2-.16-.35-.07-.15-.14-.31-.21-.48-.07-.16-.14-.31-.2-.44-.06-.13-.1-.21-.12-.24h-.09c-.07.15-.15.32-.24.52-.09.2-.18.39-.26.57-.08.18-.15.32-.2.43l-1.02,2.09Z"/>
    <path class="cls-2" d="M157.67,187.68v-6.45h-3.47v-1.28h8.38v1.28h-3.47v6.45h-1.45Z"/>
    <path class="cls-2" d="M168.36,187.81c-1.01,0-1.89-.15-2.62-.46-.74-.31-1.3-.76-1.7-1.36-.4-.6-.6-1.32-.6-2.18s.2-1.6.6-2.19c.4-.59.96-1.04,1.7-1.35.73-.31,1.61-.47,2.62-.47s1.9.16,2.64.47c.74.31,1.3.76,1.7,1.35.39.59.59,1.32.59,2.19s-.2,1.58-.59,2.18c-.39.6-.96,1.05-1.7,1.36-.74.31-1.62.46-2.64.46ZM168.37,186.58c.49,0,.94-.05,1.36-.16s.78-.27,1.09-.48c.31-.22.55-.5.73-.83.17-.34.26-.73.26-1.18v-.26c0-.44-.09-.83-.26-1.16-.17-.33-.41-.61-.73-.83-.31-.22-.68-.38-1.09-.48s-.87-.16-1.36-.16-.95.05-1.37.16c-.42.11-.78.27-1.09.48-.31.22-.55.49-.72.83s-.25.72-.25,1.16v.26c0,.45.08.84.25,1.18.17.34.41.62.72.83.31.22.68.38,1.09.48.42.11.87.16,1.37.16Z"/>
    <path class="cls-2" d="M175.27,187.68v-7.73h5.95c.52,0,.96.11,1.31.32.35.21.61.5.78.86s.26.76.26,1.2c0,.46-.12.9-.37,1.29-.24.4-.61.7-1.1.9l1.65,3.16h-1.63l-1.47-2.89h-3.94v2.89h-1.45ZM176.72,183.57h4.13c.39,0,.69-.11.91-.34.22-.23.33-.52.33-.88,0-.25-.05-.46-.14-.63-.09-.17-.23-.31-.42-.4-.19-.09-.41-.14-.68-.14h-4.13v2.4Z"/>
    <path class="cls-2" d="M185.52,187.68v-7.73h1.45v7.73h-1.45Z"/>
    <path class="cls-2" d="M189.28,187.68v-7.73h7.71v1.23h-6.26v1.95h5.6v1.23h-5.6v2.1h6.35v1.23h-7.8Z"/>
    <path class="cls-2" d="M202.74,187.81c-.56,0-1.1-.03-1.6-.1-.5-.07-.95-.19-1.33-.37-.38-.18-.68-.43-.89-.75s-.32-.73-.32-1.24v-.07s0-.05.01-.06h1.44s-.01.07-.02.11c0,.05,0,.1,0,.16,0,.26.11.47.33.64.22.17.53.29.93.37.4.08.88.12,1.43.12.25,0,.49-.01.74-.03.24-.02.47-.06.69-.11.22-.05.41-.11.58-.19.17-.08.3-.18.41-.3.1-.12.15-.26.15-.42,0-.23-.09-.41-.27-.55-.18-.14-.42-.25-.73-.34-.31-.09-.65-.16-1.04-.21-.39-.06-.78-.12-1.19-.18-.41-.06-.8-.15-1.19-.25-.38-.1-.73-.24-1.03-.4s-.55-.38-.73-.65c-.18-.27-.27-.59-.27-.98,0-.34.08-.64.24-.91.16-.27.4-.5.73-.69.32-.19.73-.34,1.22-.44.49-.1,1.06-.15,1.72-.15s1.24.06,1.71.17c.47.11.86.27,1.16.47.3.2.52.43.66.69.14.26.21.54.21.84v.19h-1.42v-.18c0-.18-.09-.34-.28-.49s-.44-.26-.78-.35c-.33-.09-.72-.13-1.16-.13-.58,0-1.05.04-1.42.12-.37.08-.64.19-.82.32-.18.14-.26.3-.26.48s.09.35.26.48c.18.12.42.22.73.3.31.07.65.14,1.04.2s.78.12,1.19.19c.41.07.8.15,1.19.25.38.1.73.24,1.04.41.31.17.55.39.73.65.18.26.27.58.27.97,0,.59-.17,1.07-.51,1.42s-.81.61-1.42.77c-.6.16-1.31.24-2.11.24Z"/>
  </g>
</svg>