<?xml version="1.0" encoding="UTF-8"?>
<svg id="Layer_1" data-name="Layer 1" xmlns="http://www.w3.org/2000/svg" viewBox="0 0 137.64 182.75">
  <defs>
    <style>
      .cls-1 {
        fill: currentColor;
      }
    </style>
  </defs>
  <path class="cls-1" d="M63.27,46.33v4.23H30.79c-.4,0-.72.32-.72.72v32.82c0,.4.32.72.72.72h20.43c.4,0,.72-.32.72-.72v-19.32c0-.51-.52-.86-.99-.65-2.44,1.06-7.4,3.22-9.44,4.1-.24.11-.36.38-.28.63l.49,1.49c.08.25.35.4.61.34l5.49-1.28v11.29h-13.28c-.2,0-.36-.16-.36-.36v-25.3c0-.2.16-.36.36-.36h28.36c.2,0,.36.16.36.36v27c0,.4.32.72.72.72h2.68c.4,0,.72-.32.72-.72v-35.71c0-2.83,2.74-4.86,5.45-4.03l27.81,8.49c.15.05.26.19.26.34v83.93c0,.16-.1.3-.26.34l-27.8,8.48c-2.72.83-5.46-1.2-5.46-4.04v-4.22s0-4.12,0-4.12v-27.36c0-.4-.32-.72-.72-.72h-2.68c-.4,0-.72.32-.72.72v27.36h-28.72c-.2,0-.36-.16-.36-.36v-25.3c0-.2.16-.36.36-.36h12.91c.2,0,.36.16.36.36v10.93l-5.49-1.28c-.26-.06-.52.09-.61.34l-.5,1.5c-.08.25.03.53.28.63,2.03.88,7,3.03,9.44,4.09.48.21,1-.14,1-.66v-2.03c0-.94,0-14.04,0-17.28,0-.39-.32-.71-.71-.71h-1.34c-.99,0-15.64,0-19.1,0-.4,0-.71.32-.71.72v32.82c0,.4.32.72.72.72h32.48v4.22c0,5.61,5.42,9.62,10.78,7.98l30.46-9.29c.3-.09.51-.37.51-.69V48.34c0-.32-.21-.6-.51-.69l-30.46-9.3c-5.36-1.64-10.78,2.37-10.78,7.98Z"/>
  <path class="cls-1" d="M30.07,93.08h0c0,.78.63,1.41,1.41,1.41h57.41s-14.08,14.08-14.08,14.08l-.31-7.58c0-.19-.16-.34-.35-.34h-1.21c-.19,0-.34.15-.35.34l-.45,10.84-.11,2.64c-.01.32.37.49.6.26,3.44-3.45,19.34-19.34,20.65-20.65l.75-.75c.14-.14.14-.36,0-.5l-.75-.75c-1.26-1.26-17.21-17.21-20.65-20.65-.23-.23-.61-.06-.6.26.13,3.17.44,10.85.55,13.49,0,.18.16.33.34.33h1.24c.19,0,.34-.15.35-.34l.31-7.58,14.07,14.07H31.47c-.78,0-1.41.63-1.41,1.41Z"/>
</svg>
