<?xml version="1.0" encoding="UTF-8"?>
<svg id="Layer_1" data-name="Layer 1" xmlns="http://www.w3.org/2000/svg" viewBox="0 0 370.76 180.43">
  <defs>
    <style>
      .cls-1 {
        fill: currentColor;
      }

      .cls-2 {
        fill: currentColor;
      }
    </style>
  </defs>
  <path class="cls-1" d="M62.03,81.17h2.41c.49,0,.89-.4.89-.89v-7.56c0-.24.19-.43.43-.43h9.14c.24,0,.43.19.43.43v5.16c0,.23-.13.44-.34.55-7.56,3.88-12.73,11.76-12.73,20.84,0,12.98,10.64,23.53,23.62,23.41,12.83-.11,23.2-10.55,23.2-23.41,0-9-5.08-16.81-12.52-20.73-.2-.11-.33-.32-.33-.55v-5.27c0-.24.19-.43.43-.43h8.93c.24,0,.43.19.43.43v7.56c0,.49.4.89.89.89h2.41c.41,0,.76-.29.83-.69l2.6-14.09c.1-.52-.3-1-.83-1h-22.6v17.3c0,.28.19.53.46.59,7.2,1.84,12.51,8.42,12.41,16.22-.12,9.04-7.6,16.35-16.64,16.27-9.05-.08-16.36-7.44-16.36-16.5,0-7.77,5.37-14.28,12.59-16.04.27-.07.47-.31.47-.6v-17.25s-22.79,0-22.79,0c-.53,0-.93.48-.83,1l2.6,14.09c.07.4.42.69.83.69Z"/>
  <g>
    <g>
      <path class="cls-1" d="M150.82,98.85c-3.55,0-6.58-.62-9.11-1.86-2.53-1.24-4.46-3.1-5.81-5.58-1.35-2.48-2.02-5.59-2.02-9.32s.67-6.83,2.02-9.3c1.35-2.46,3.29-4.31,5.81-5.55,2.53-1.24,5.56-1.86,9.11-1.86s6.58.62,9.11,1.86c2.53,1.24,4.46,3.09,5.81,5.55,1.35,2.46,2.02,5.56,2.02,9.3s-.68,6.84-2.02,9.32c-1.35,2.48-3.29,4.34-5.81,5.58-2.53,1.24-5.56,1.86-9.11,1.86ZM150.82,92.26c1.35,0,2.54-.2,3.58-.61,1.04-.41,1.91-1,2.61-1.79.71-.78,1.23-1.74,1.58-2.87.35-1.13.52-2.4.52-3.81v-2.07c0-1.44-.17-2.73-.52-3.86-.35-1.13-.87-2.09-1.58-2.87-.71-.78-1.58-1.38-2.61-1.79-1.04-.41-2.23-.61-3.58-.61s-2.59.2-3.62.61c-1.04.41-1.9,1-2.59,1.79-.69.78-1.21,1.74-1.55,2.87-.35,1.13-.52,2.42-.52,3.86v2.07c0,1.41.17,2.68.52,3.81.34,1.13.86,2.09,1.55,2.87.69.78,1.55,1.38,2.59,1.79,1.04.41,2.24.61,3.62.61Z"/>
      <path class="cls-1" d="M173.42,98.29v-32.34h12.29l3.91,14.4c.16.5.35,1.18.56,2.05.22.86.44,1.77.66,2.71.22.94.41,1.79.56,2.54h.38c.13-.6.28-1.31.47-2.14.19-.83.39-1.71.61-2.64.22-.93.42-1.78.61-2.57l3.95-14.36h11.96v32.34h-8.19v-13.79c0-1.35,0-2.71.02-4.1.02-1.38.04-2.64.07-3.77.03-1.13.05-1.95.05-2.45h-.38c-.09.47-.24,1.15-.45,2.05-.2.89-.42,1.82-.66,2.78-.24.96-.45,1.78-.64,2.47l-4.71,16.8h-6.78l-4.75-16.8c-.16-.63-.35-1.38-.56-2.26-.22-.88-.43-1.77-.64-2.68-.2-.91-.38-1.68-.54-2.31h-.38c.03.82.06,1.81.09,2.99.03,1.18.06,2.4.09,3.67.03,1.27.05,2.47.05,3.6v13.79h-7.67Z"/>
      <path class="cls-1" d="M216.53,98.29v-32.34h26.69v6.59h-18.26v6.07h15.96v6.45h-15.96v6.64h18.59v6.59h-27.02Z"/>
      <path class="cls-1" d="M264.08,98.85c-5.21,0-9.17-1.38-11.89-4.14-2.71-2.76-4.07-6.97-4.07-12.62,0-3.73.67-6.83,2-9.3,1.33-2.46,3.28-4.31,5.84-5.55,2.56-1.24,5.64-1.86,9.25-1.86,2.17,0,4.21.25,6.12.75,1.91.5,3.61,1.25,5.08,2.24,1.47.99,2.62,2.23,3.44,3.72.82,1.49,1.22,3.24,1.22,5.25h-8.28c0-.85-.19-1.61-.56-2.28-.38-.67-.9-1.24-1.58-1.69-.68-.45-1.45-.8-2.33-1.04-.88-.24-1.8-.35-2.78-.35-1.44,0-2.72.19-3.84.56-1.11.38-2.03.96-2.75,1.74-.72.78-1.26,1.74-1.62,2.87-.36,1.13-.54,2.45-.54,3.95v2.07c0,2.01.31,3.69.94,5.04.63,1.35,1.58,2.36,2.85,3.04,1.27.68,2.83,1.01,4.68,1.01,1.44,0,2.74-.22,3.88-.66,1.14-.44,2.05-1.07,2.73-1.91.67-.83,1.01-1.83,1.01-2.99v-.24h-8.71v-5.93h16.9v17.75h-4.9l-.8-3.39c-.97.88-2.02,1.62-3.13,2.21-1.11.6-2.34,1.04-3.67,1.32-1.33.28-2.83.42-4.5.42Z"/>
      <path class="cls-1" d="M284.55,98.29l12.14-32.34h10.12l12.14,32.34h-8.99l-1.93-5.6h-12.9l-1.93,5.6h-8.66ZM297.17,86.38h8.8l-2.31-6.83c-.13-.35-.28-.78-.45-1.29-.17-.52-.35-1.07-.52-1.65-.17-.58-.34-1.17-.49-1.77-.16-.6-.31-1.11-.47-1.55h-.33c-.13.6-.31,1.27-.54,2.02-.24.75-.47,1.51-.71,2.26s-.45,1.41-.64,1.98l-2.35,6.83Z"/>
    </g>
    <g>
      <path class="cls-2" d="M138.74,114.24v-7.37h1.38v6.14h4.64v1.22h-6.03Z"/>
      <path class="cls-2" d="M145.42,114.24l3.72-7.37h1.58l3.72,7.37h-1.52l-.79-1.59h-4.48l-.79,1.59h-1.43ZM148.2,111.51h3.37l-.98-2.01c-.04-.08-.09-.19-.16-.34-.07-.15-.14-.3-.2-.46-.07-.16-.13-.3-.19-.42-.06-.12-.1-.2-.12-.23h-.09c-.06.14-.14.31-.23.5-.09.19-.17.37-.25.54-.08.17-.14.31-.19.41l-.98,1.99Z"/>
      <path class="cls-2" d="M155.84,114.24v-7.37h5.49c.41,0,.77.07,1.08.23.31.15.55.36.72.62.17.26.26.58.26.94,0,.29-.05.55-.16.78-.11.23-.25.43-.44.58-.19.16-.4.27-.64.35v.04c.29.06.54.17.76.33.22.16.39.37.51.62.13.25.19.54.19.88,0,.46-.1.83-.31,1.13s-.48.51-.82.65c-.34.14-.73.21-1.15.21h-5.49ZM157.23,109.91h3.63c.22,0,.42-.04.58-.12s.3-.19.4-.34c.1-.15.14-.32.14-.51,0-.31-.09-.54-.27-.69-.18-.15-.42-.22-.72-.22h-3.75v1.88ZM157.23,113.07h3.86c.33,0,.59-.08.8-.24.2-.16.31-.41.31-.75,0-.22-.04-.4-.13-.55s-.22-.27-.39-.35c-.17-.08-.38-.12-.62-.12h-3.82v2.01Z"/>
      <path class="cls-2" d="M169.72,114.36c-.97,0-1.8-.15-2.5-.44-.7-.29-1.24-.72-1.62-1.29-.38-.57-.57-1.26-.57-2.08s.19-1.52.57-2.09c.38-.56.92-.99,1.62-1.29.7-.3,1.53-.45,2.5-.45s1.81.15,2.52.45c.7.3,1.24.73,1.62,1.29.38.56.56,1.26.56,2.09s-.19,1.51-.56,2.08c-.38.57-.92,1-1.62,1.29-.7.29-1.54.44-2.52.44ZM169.73,113.2c.46,0,.9-.05,1.29-.15s.74-.25,1.04-.46c.3-.21.53-.47.69-.79.16-.32.25-.7.25-1.13v-.25c0-.42-.08-.79-.25-1.11-.16-.32-.39-.58-.69-.79-.3-.21-.64-.36-1.04-.46s-.83-.15-1.29-.15-.91.05-1.3.15c-.4.1-.74.25-1.04.46-.3.21-.53.47-.69.79s-.24.69-.24,1.11v.25c0,.43.08.8.24,1.13.16.32.39.59.69.79.3.21.64.36,1.04.46.4.1.83.15,1.3.15Z"/>
      <path class="cls-2" d="M176.31,114.24v-7.37h5.67c.5,0,.92.1,1.25.31.33.2.58.48.74.82s.25.72.25,1.14c0,.44-.12.85-.35,1.23-.23.38-.58.66-1.05.86l1.58,3.01h-1.56l-1.41-2.76h-3.75v2.76h-1.38ZM177.69,110.32h3.94c.37,0,.66-.11.87-.33.21-.22.31-.5.31-.84,0-.24-.04-.44-.13-.6-.09-.16-.22-.29-.4-.38-.18-.09-.39-.13-.64-.13h-3.94v2.28Z"/>
      <path class="cls-2" d="M185.27,114.24l3.72-7.37h1.58l3.72,7.37h-1.52l-.79-1.59h-4.48l-.79,1.59h-1.43ZM188.05,111.51h3.37l-.98-2.01c-.04-.08-.09-.19-.16-.34-.07-.15-.14-.3-.2-.46-.07-.16-.13-.3-.19-.42-.06-.12-.1-.2-.12-.23h-.09c-.06.14-.14.31-.23.5-.09.19-.17.37-.25.54-.08.17-.14.31-.19.41l-.98,1.99Z"/>
      <path class="cls-2" d="M196.75,114.24v-6.15h-3.3v-1.22h7.99v1.22h-3.3v6.15h-1.38Z"/>
      <path class="cls-2" d="M206.94,114.36c-.97,0-1.8-.15-2.5-.44-.7-.29-1.24-.72-1.62-1.29-.38-.57-.57-1.26-.57-2.08s.19-1.52.57-2.09c.38-.56.92-.99,1.62-1.29.7-.3,1.53-.45,2.5-.45s1.81.15,2.52.45c.7.3,1.24.73,1.62,1.29.38.56.56,1.26.56,2.09s-.19,1.51-.56,2.08c-.38.57-.92,1-1.62,1.29-.7.29-1.54.44-2.52.44ZM206.95,113.2c.46,0,.9-.05,1.29-.15s.74-.25,1.04-.46c.3-.21.53-.47.69-.79.16-.32.25-.7.25-1.13v-.25c0-.42-.08-.79-.25-1.11-.16-.32-.39-.58-.69-.79-.3-.21-.64-.36-1.04-.46s-.83-.15-1.29-.15-.91.05-1.3.15c-.4.1-.74.25-1.04.46-.3.21-.53.47-.69.79s-.24.69-.24,1.11v.25c0,.43.08.8.24,1.13.16.32.39.59.69.79.3.21.64.36,1.04.46.4.1.83.15,1.3.15Z"/>
      <path class="cls-2" d="M213.52,114.24v-7.37h5.67c.5,0,.92.1,1.25.31.33.2.58.48.74.82s.25.72.25,1.14c0,.44-.12.85-.35,1.23-.23.38-.58.66-1.05.86l1.58,3.01h-1.56l-1.41-2.76h-3.75v2.76h-1.38ZM214.91,110.32h3.94c.37,0,.66-.11.87-.33.21-.22.31-.5.31-.84,0-.24-.04-.44-.13-.6-.09-.16-.22-.29-.4-.38-.18-.09-.39-.13-.64-.13h-3.94v2.28Z"/>
      <path class="cls-2" d="M223.29,114.24v-7.37h1.38v7.37h-1.38Z"/>
      <path class="cls-2" d="M226.88,114.24v-7.37h7.35v1.17h-5.96v1.86h5.34v1.17h-5.34v2.01h6.05v1.17h-7.43Z"/>
      <path class="cls-2" d="M239.7,114.36c-.54,0-1.04-.03-1.52-.1-.48-.06-.9-.18-1.27-.35-.36-.17-.65-.41-.85-.71s-.31-.7-.31-1.19v-.07s0-.04.01-.06h1.37s-.01.06-.02.11c0,.04,0,.09,0,.15,0,.24.1.45.31.61.21.16.5.28.89.35.39.08.84.11,1.36.11.24,0,.47-.01.7-.03.23-.02.45-.06.66-.1.21-.05.39-.11.55-.18.16-.08.29-.17.39-.28.1-.11.14-.25.14-.4,0-.21-.09-.39-.26-.52-.17-.13-.4-.24-.7-.32-.29-.08-.62-.15-.99-.2-.37-.05-.75-.11-1.14-.17-.39-.06-.77-.14-1.13-.24-.36-.1-.69-.23-.99-.39s-.53-.36-.7-.62c-.17-.25-.26-.57-.26-.94,0-.32.08-.61.23-.86.15-.25.38-.47.69-.65.31-.18.69-.32,1.16-.42.46-.1,1.01-.14,1.64-.14s1.18.05,1.63.16c.45.11.82.26,1.11.45.29.19.49.41.63.66.13.25.2.52.2.8v.18h-1.35v-.17c0-.17-.09-.33-.26-.47s-.42-.25-.74-.34c-.32-.09-.69-.13-1.11-.13-.55,0-1,.04-1.35.11-.35.07-.61.18-.78.31-.17.13-.25.28-.25.46s.08.34.25.46c.17.12.4.21.69.28.29.07.62.13.99.19s.75.11,1.14.18c.39.06.77.15,1.13.24.37.1.69.23.99.39.29.16.53.37.7.62.17.25.26.56.26.92,0,.56-.16,1.02-.49,1.36s-.78.58-1.35.73c-.58.15-1.25.23-2.01.23Z"/>
    </g>
  </g>
</svg>