<?xml version="1.0" encoding="UTF-8"?>
<svg id="Layer_1" data-name="Layer 1" xmlns="http://www.w3.org/2000/svg" viewBox="0 0 182.75 212.82">
  <defs>
    <style>
      .cls-1 {
        fill: #0047ab;
      }
    </style>
  </defs>
  <path class="cls-1" d="M129.37,75.04l14.72-16.41-.58-.58-16.41,14.72-2.75-2.75c-.28-.28-.74-.28-1.02,0l-4.66,4.66c-3.66-1.82-7.86-2.49-12.15-1.71-4,.72-7.64,2.79-10.51,5.66l-41.23,41.23c-.28.28-.28.74,0,1.02l11.78,11.78-16.87,16.87c-.14.14-.37.14-.51,0l-8.55-8.55c-.16-.16-.13-.43.06-.56l5.75-3.77c.23-.15.3-.45.17-.68l-.87-1.55c-.13-.23-.41-.33-.65-.21-2.1,1.01-8.05,3.88-10.59,5.1-.45.21-.55.81-.2,1.16l1.33,1.33,24.59,24.59,1.27,1.27c.34.34.92.26,1.15-.17,1.29-2.41,4.32-8.09,5.4-10.11.13-.24.04-.52-.18-.66l-1.57-.97c-.23-.14-.53-.08-.69.14l-3.93,5.52c-.13.18-.39.2-.55.05l-8.5-8.5c-.14-.14-.14-.37,0-.51l16.87-16.87,11.78,11.78c.28.28.74.28,1.02,0l41.51-41.52c6.04-6.04,7.25-15.1,3.66-22.37l4.67-4.67c.28-.28.28-.74,0-1.02l-2.75-2.75ZM120.87,102.94l-39.11,39.11-21.68-21.68,39.11-39.11c2.89-2.9,6.74-4.49,10.84-4.49s7.94,1.59,10.84,4.49c5.98,5.98,5.98,15.7,0,21.68Z"/>
</svg>