<?xml version="1.0" encoding="UTF-8"?>
<svg id="Layer_1" data-name="Layer 1" xmlns="http://www.w3.org/2000/svg" viewBox="0 0 149.2 187.37">
  <defs>
    <style>
      .cls-1 {
        fill: currentColor;
      }
    </style>
  </defs>
  <path class="cls-1" d="M114.95,120.37h0c0-1.14-.92-2.06-2.06-2.06H37.39s20.64-20.64,20.64-20.64l.46,11.12c.01.28.24.49.51.49h1.78c.28,0,.5-.22.51-.49l.66-15.89.16-3.87c.02-.47-.54-.72-.88-.39-5.05,5.05-28.36,28.35-30.27,30.27l-1.09,1.09c-.2.2-.2.53,0,.73l1.09,1.09c1.84,1.84,25.23,25.23,30.27,30.27.33.33.89.08.88-.38-.19-4.65-.64-15.91-.8-19.78-.01-.27-.23-.48-.5-.48h-1.82c-.28,0-.5.22-.51.49l-.45,11.11-20.63-20.63h75.5c1.14,0,2.06-.92,2.06-2.06Z"/>
  <path class="cls-1" d="M116.41,76.09c-1.84-1.84-25.23-25.23-30.27-30.27-.33-.33-.89-.08-.88.38.19,4.65.64,15.91.8,19.78.01.27.23.48.5.48h1.82c.28,0,.5-.22.51-.49l.45-11.11,20.63,20.63H34.48c-1.14,0-2.06.92-2.06,2.06h0c0,1.14.92,2.06,2.06,2.06h75.5s-20.64,20.64-20.64,20.64c-.17-4.03-.39-9.48-.46-11.12-.01-.28-.24-.49-.51-.49h-1.78c-.28,0-.5.22-.51.49l-.66,15.89-.16,3.87c-.02.47.54.72.88.39,5.05-5.05,28.36-28.35,30.27-30.27l1.09-1.09c.2-.2.2-.53,0-.73l-1.09-1.09Z"/>
</svg>
