<?xml version="1.0" encoding="UTF-8"?>
<svg xmlns="http://www.w3.org/2000/svg" xmlns:xlink="http://www.w3.org/1999/xlink" viewBox="0 0 326.16 441.12">
  <defs>
    <style>
      .cls-1 {
        fill: none;
      }

      .cls-2 {
        mask: url(#mask);
      }

      .cls-3 {
        fill: #e6e6e6;
      }

      .cls-4 {
        fill: url(#linear-gradient-8);
      }

      .cls-5 {
        fill: url(#linear-gradient-7);
      }

      .cls-6 {
        fill: url(#linear-gradient-5);
      }

      .cls-7 {
        fill: url(#linear-gradient-6);
      }

      .cls-8 {
        fill: url(#linear-gradient-9);
      }

      .cls-9 {
        fill: url(#linear-gradient-4);
      }

      .cls-10 {
        fill: url(#linear-gradient-3);
      }

      .cls-11 {
        fill: url(#linear-gradient-2);
      }

      .cls-12 {
        fill: url(#radial-gradient);
      }

      .cls-13 {
        fill: url(#linear-gradient);
      }

      .cls-14 {
        isolation: isolate;
      }

      .cls-15 {
        mask: url(#mask-1);
      }

      .cls-16 {
        clip-path: url(#clippath-1);
      }

      .cls-17 {
        clip-path: url(#clippath-2);
      }

      .cls-18 {
        fill: #002366;
      }

      .cls-19 {
        fill: url(#linear-gradient-10);
      }

      .cls-20 {
        fill: url(#linear-gradient-11);
      }

      .cls-21 {
        fill: url(#linear-gradient-12);
      }

      .cls-22 {
        fill: url(#linear-gradient-13);
      }

      .cls-23 {
        fill: url(#linear-gradient-19);
      }

      .cls-24 {
        fill: url(#linear-gradient-14);
      }

      .cls-25 {
        fill: url(#linear-gradient-21);
      }

      .cls-26 {
        fill: url(#linear-gradient-20);
      }

      .cls-27 {
        fill: url(#linear-gradient-22);
      }

      .cls-28 {
        fill: url(#linear-gradient-15);
      }

      .cls-29 {
        fill: url(#linear-gradient-16);
      }

      .cls-30 {
        fill: url(#linear-gradient-17);
      }

      .cls-31 {
        fill: url(#linear-gradient-18);
      }

      .cls-32 {
        mix-blend-mode: overlay;
        opacity: .09;
      }

      .cls-33 {
        clip-path: url(#clippath);
      }
    </style>
    <clipPath id="clippath">
      <rect class="cls-1" y="0" width="326.16" height="441.12"/>
    </clipPath>
    <linearGradient id="linear-gradient" x1="165.91" y1="106.61" x2="165.91" y2="375.13" gradientUnits="userSpaceOnUse">
      <stop offset="0" stop-color="#fff"/>
      <stop offset=".8" stop-color="#000"/>
    </linearGradient>
    <mask id="mask" x="45.01" y="94.22" width="241.82" height="284.16" maskUnits="userSpaceOnUse">
      <rect class="cls-13" x="45.01" y="94.22" width="241.82" height="284.16"/>
    </mask>
    <linearGradient id="linear-gradient-2" x1="160.68" y1="432.99" x2="160.68" y2="100.97" gradientUnits="userSpaceOnUse">
      <stop offset="0" stop-color="#fff"/>
      <stop offset=".02" stop-color="#f3f3f3"/>
      <stop offset=".16" stop-color="#b3b3b3"/>
      <stop offset=".29" stop-color="#7d7d7d"/>
      <stop offset=".42" stop-color="#505050"/>
      <stop offset=".55" stop-color="#2d2d2d"/>
      <stop offset=".66" stop-color="#141414"/>
      <stop offset=".77" stop-color="#050505"/>
      <stop offset=".85" stop-color="#000"/>
    </linearGradient>
    <mask id="mask-1" x="-327.97" y="-517.65" width="977.3" height="1508.29" maskUnits="userSpaceOnUse">
      <rect class="cls-11" x="-58.43" y="94.62" width="438.23" height="346.5"/>
    </mask>
    <clipPath id="clippath-1">
      <rect class="cls-1" x="-58.43" y="94.62" width="438.23" height="346.5"/>
    </clipPath>
    <linearGradient id="linear-gradient-3" x1="160.68" y1="-540.95" x2="160.68" y2="1150.37" gradientUnits="userSpaceOnUse">
      <stop offset=".03" stop-color="#002366" stop-opacity="0"/>
      <stop offset=".04" stop-color="#00296e" stop-opacity=".03"/>
      <stop offset=".14" stop-color="#00509e" stop-opacity=".2"/>
      <stop offset=".23" stop-color="#006fc4" stop-opacity=".33"/>
      <stop offset=".32" stop-color="#0085df" stop-opacity=".42"/>
      <stop offset=".4" stop-color="#0092f0" stop-opacity=".48"/>
      <stop offset=".47" stop-color="#0197f6" stop-opacity=".5"/>
      <stop offset=".56" stop-color="#0093f1" stop-opacity=".49"/>
      <stop offset=".65" stop-color="#0089e4" stop-opacity=".44"/>
      <stop offset=".73" stop-color="#0077cf" stop-opacity=".37"/>
      <stop offset=".8" stop-color="#005fb1" stop-opacity=".26"/>
      <stop offset=".88" stop-color="#00408a" stop-opacity=".13"/>
      <stop offset=".93" stop-color="#002366" stop-opacity="0"/>
    </linearGradient>
    <linearGradient id="linear-gradient-4" x1="160.68" y1="-504.46" x2="160.68" y2="1107.49" xlink:href="#linear-gradient-3"/>
    <linearGradient id="linear-gradient-5" x1="160.68" y1="-467.98" x2="160.68" y2="1064.6" xlink:href="#linear-gradient-3"/>
    <linearGradient id="linear-gradient-6" x1="160.68" y1="-431.49" x2="160.68" y2="1021.71" xlink:href="#linear-gradient-3"/>
    <linearGradient id="linear-gradient-7" x1="160.68" y1="-395.01" x2="160.68" y2="978.82" xlink:href="#linear-gradient-3"/>
    <linearGradient id="linear-gradient-8" x1="160.68" y1="-358.52" x2="160.68" y2="935.93" xlink:href="#linear-gradient-3"/>
    <linearGradient id="linear-gradient-9" x1="160.68" y1="-322.03" x2="160.68" y2="893.04" xlink:href="#linear-gradient-3"/>
    <linearGradient id="linear-gradient-10" x1="160.68" y1="-285.55" x2="160.68" y2="850.15" xlink:href="#linear-gradient-3"/>
    <linearGradient id="linear-gradient-11" x1="160.68" y1="-249.06" x2="160.68" y2="807.26" xlink:href="#linear-gradient-3"/>
    <linearGradient id="linear-gradient-12" x1="160.68" y1="-212.57" x2="160.68" y2="764.38" xlink:href="#linear-gradient-3"/>
    <linearGradient id="linear-gradient-13" x1="160.68" y1="-176.09" x2="160.68" y2="721.49" xlink:href="#linear-gradient-3"/>
    <linearGradient id="linear-gradient-14" x1="160.68" y1="-139.6" x2="160.68" y2="678.6" xlink:href="#linear-gradient-3"/>
    <linearGradient id="linear-gradient-15" x1="160.68" y1="-103.12" x2="160.68" y2="635.71" xlink:href="#linear-gradient-3"/>
    <linearGradient id="linear-gradient-16" x1="160.68" y1="-66.63" x2="160.68" y2="592.82" xlink:href="#linear-gradient-3"/>
    <linearGradient id="linear-gradient-17" x1="160.68" y1="-30.14" x2="160.68" y2="549.93" xlink:href="#linear-gradient-3"/>
    <linearGradient id="linear-gradient-18" x1="160.68" y1="6.34" x2="160.68" y2="507.04" xlink:href="#linear-gradient-3"/>
    <linearGradient id="linear-gradient-19" x1="160.68" y1="42.83" x2="160.68" y2="464.15" xlink:href="#linear-gradient-3"/>
    <linearGradient id="linear-gradient-20" x1="160.68" y1="79.32" x2="160.68" y2="421.27" xlink:href="#linear-gradient-3"/>
    <linearGradient id="linear-gradient-21" x1="160.68" y1="115.8" x2="160.68" y2="378.38" xlink:href="#linear-gradient-3"/>
    <clipPath id="clippath-2">
      <rect class="cls-1" x="-58.43" y="94.62" width="438.23" height="346.5"/>
    </clipPath>
    <radialGradient id="radial-gradient" cx="170.79" cy="246.36" fx="170.79" fy="246.36" r="134.02" gradientTransform="translate(-43.17 355.72) rotate(-71.78) scale(1 .69)" gradientUnits="userSpaceOnUse">
      <stop offset="0" stop-color="#0090d8"/>
      <stop offset=".01" stop-color="#0090db"/>
      <stop offset=".06" stop-color="#0094ea"/>
      <stop offset=".12" stop-color="#0096f3"/>
      <stop offset=".22" stop-color="#0197f6"/>
      <stop offset=".29" stop-color="#0094f2" stop-opacity=".98"/>
      <stop offset=".38" stop-color="#008de9" stop-opacity=".92"/>
      <stop offset=".48" stop-color="#0081db" stop-opacity=".81"/>
      <stop offset=".59" stop-color="#0070c6" stop-opacity=".67"/>
      <stop offset=".7" stop-color="#005bac" stop-opacity=".49"/>
      <stop offset=".82" stop-color="#00418b" stop-opacity=".26"/>
      <stop offset=".93" stop-color="#002366" stop-opacity="0"/>
    </radialGradient>
    <linearGradient id="linear-gradient-22" x1="160.68" y1="128.44" x2="160.68" y2="136.5" xlink:href="#linear-gradient-3"/>
  </defs>
  <g class="cls-14">
    <g id="Layer_1" data-name="Layer 1">
      <g class="cls-33">
        <rect class="cls-18" y="0" width="326.16" height="441.12"/>
        <rect class="cls-18" x="-58.43" y="94.62" width="438.23" height="283.75"/>
        <g class="cls-2">
          <g class="cls-32">
            <path class="cls-3" d="M65.08,204.51h9.75c1.98,0,3.58-1.6,3.58-3.58v-30.56c0-.95.77-1.73,1.73-1.73h36.98c.95,0,1.73.77,1.73,1.73v20.87c0,.94-.53,1.79-1.37,2.22-30.58,15.7-51.5,47.56-51.5,84.3,0,52.51,43.05,95.17,95.56,94.71,51.91-.46,93.86-42.68,93.86-94.71,0-36.4-20.54-68.01-50.66-83.86-.82-.43-1.35-1.28-1.35-2.21v-21.32c0-.95.77-1.73,1.73-1.73h36.12c.95,0,1.73.77,1.73,1.73v30.56c0,1.98,1.6,3.58,3.58,3.58h9.75c1.65,0,3.07-1.18,3.37-2.8l10.52-56.99c.39-2.1-1.23-4.05-3.37-4.05h-91.41v69.98c0,1.13.76,2.12,1.85,2.4,29.15,7.44,50.62,34.06,50.19,65.61-.49,36.57-30.75,66.14-67.33,65.84-36.61-.31-66.19-30.08-66.19-66.76,0-31.42,21.71-57.77,50.94-64.87,1.11-.27,1.88-1.27,1.88-2.41v-69.79s-92.18,0-92.18,0c-2.14,0-3.76,1.94-3.37,4.05l10.52,56.99c.3,1.62,1.72,2.8,3.37,2.8Z"/>
          </g>
        </g>
        <g class="cls-15">
          <g class="cls-16">
            <g>
              <path class="cls-10" d="M314.29,37.97v-402.22c21.84-13,36.55-36.78,36.55-63.99v-14.91c0-41.08-33.42-74.5-74.49-74.5H45.02c-41.08,0-74.5,33.42-74.5,74.5v14.91c0,29.19,16.92,54.44,41.43,66.65V36.33c-201.77,64.07-339.92,250.87-339.92,465.49,0,129.79,50.34,252.01,141.74,344.14,91.32,92.04,213.03,143.42,342.83,144.67h3.94c265.65.01,484.91-216.18,488.75-482.01,2.8-215.19-133.39-404.12-335-470.66Z"/>
              <path class="cls-9" d="M307.08,47.28v-383.34c20.81-12.39,34.83-35.05,34.83-60.98v-14.21c0-39.15-31.85-71-71-71H50.45c-39.15,0-71,31.85-71,71v14.21c0,27.82,16.12,51.89,39.48,63.52V45.72c-192.3,61.07-323.97,239.1-323.97,443.65,0,123.7,47.97,240.18,135.09,327.99,87.03,87.72,203.04,136.69,326.74,137.88h3.75c253.19.01,462.15-206.04,465.82-459.39,2.67-205.09-127.13-385.16-319.28-448.57Z"/>
              <path class="cls-6" d="M299.87,56.6v-364.47c19.79-11.78,33.11-33.33,33.11-57.98v-13.51c0-37.22-30.28-67.5-67.5-67.5H55.88c-37.22,0-67.5,30.28-67.5,67.5v13.51c0,26.45,15.33,49.33,37.54,60.4V55.11c-182.83,58.06-308.02,227.33-308.02,421.8,0,117.61,45.61,228.36,128.43,311.84,82.74,83.4,193.04,129.96,310.65,131.09h3.57c240.72.01,439.39-195.89,442.88-436.76,2.54-194.99-120.87-366.19-303.56-426.48Z"/>
              <path class="cls-7" d="M292.66,65.92v-345.59c18.76-11.17,31.4-31.6,31.4-54.98v-12.81c0-35.3-28.71-64.01-64.01-64.01H61.31c-35.3,0-64.01,28.71-64.01,64.01v12.81c0,25.08,14.54,46.78,35.59,57.27V64.51c-173.36,55.05-292.06,215.55-292.06,399.95,0,111.52,43.25,216.53,121.78,295.69,78.46,79.08,183.04,123.23,294.56,124.3h3.38c228.25.01,416.64-185.74,419.94-414.14,2.41-184.89-114.61-347.23-287.83-404.4Z"/>
              <path class="cls-5" d="M285.45,75.24V-251.48c17.74-10.56,29.68-29.88,29.68-51.98v-12.11c0-33.37-27.14-60.51-60.51-60.51H66.74c-33.37,0-60.51,27.14-60.51,60.51v12.11c0,23.71,13.74,44.22,33.65,54.14V73.9C-124.02,125.95-236.24,277.68-236.24,452.01c0,105.43,40.89,204.7,115.13,279.54,74.17,74.76,173.04,116.5,278.47,117.51h3.2c215.78.01,393.88-175.6,397-391.52,2.28-174.79-108.35-328.26-272.11-382.31Z"/>
              <path class="cls-4" d="M278.25,84.55V-223.28c16.71-9.95,27.97-28.15,27.97-48.97v-11.41c0-31.44-25.58-57.02-57.01-57.02H72.16c-31.44,0-57.02,25.58-57.02,57.02v11.41c0,22.34,12.95,41.67,31.71,51.01V83.3c-154.42,49.04-260.16,192.01-260.16,356.26,0,99.34,38.53,192.88,108.48,263.39,69.89,70.44,163.04,109.77,262.38,110.72h3.01c203.32.01,371.12-165.45,374.07-368.9,2.14-164.69-102.09-309.29-256.39-360.22Z"/>
              <path class="cls-8" d="M271.04,93.87V-195.09c15.69-9.34,26.25-26.42,26.25-45.97v-10.71c0-29.51-24.01-53.52-53.52-53.52H77.59c-29.51,0-53.52,24.01-53.52,53.52v10.71c0,20.97,12.15,39.11,29.76,47.88V92.69c-144.95,46.03-244.21,180.23-244.21,334.42,0,93.25,36.16,181.05,101.83,247.24,65.6,66.12,153.05,103.04,246.29,103.94h2.83c190.85.01,348.36-155.31,351.13-346.28,2.01-154.6-95.83-290.33-240.67-338.13Z"/>
              <path class="cls-19" d="M263.83,103.19V-166.9c14.66-8.73,24.54-24.7,24.54-42.97v-10.01c0-27.58-22.44-50.02-50.02-50.02H83.02c-27.58,0-50.02,22.44-50.02,50.02v10.01c0,19.6,11.36,36.56,27.82,44.76V102.09c-135.48,43.02-228.25,168.46-228.25,312.57,0,87.15,33.8,169.22,95.18,231.09,61.32,61.8,143.05,96.3,230.2,97.15h2.64c178.38,0,325.61-145.16,328.19-323.66,1.88-144.5-89.57-271.36-224.95-316.04Z"/>
              <path class="cls-20" d="M256.62,112.5v-251.21c13.64-8.12,22.82-22.97,22.82-39.96v-9.31c0-25.66-20.87-46.53-46.53-46.53H88.45c-25.66,0-46.53,20.87-46.53,46.53v9.31c0,18.23,10.57,34,25.87,41.63V111.48c-126.02,40.02-212.3,156.68-212.3,290.73,0,81.06,31.44,157.39,88.52,214.94,57.03,57.49,133.05,89.57,214.12,90.36h2.46c165.91,0,302.85-135.02,305.25-301.04,1.75-134.4-83.31-252.4-209.23-293.95Z"/>
              <path class="cls-21" d="M249.41,121.82V-110.51c12.61-7.51,21.11-21.25,21.11-36.96v-8.61c0-23.73-19.3-43.03-43.03-43.03H93.88c-23.73,0-43.03,19.3-43.03,43.03v8.61c0,16.86,9.77,31.45,23.93,38.5V120.87c-116.55,37.01-196.35,144.91-196.35,268.88,0,74.97,29.08,145.57,81.87,198.78,52.75,53.17,123.05,82.84,198.03,83.57h2.27c153.45,0,280.09-124.87,282.32-278.42,1.62-124.3-77.05-233.43-193.5-271.86Z"/>
              <path class="cls-22" d="M242.2,131.14V-82.32c11.59-6.9,19.39-19.52,19.39-33.96v-7.91c0-21.8-17.73-39.54-39.53-39.54h-122.76c-21.8,0-39.54,17.73-39.54,39.54v7.91c0,15.49,8.98,28.89,21.98,35.37v211.17c-107.08,34-180.4,133.14-180.4,247.03,0,68.88,26.71,133.74,75.22,182.63,48.46,48.85,113.06,76.11,181.94,76.78h2.09c140.98,0,257.34-114.73,259.38-255.8,1.49-114.2-70.79-214.47-177.78-249.78Z"/>
              <path class="cls-24" d="M234.99,140.46V-54.12c10.56-6.29,17.68-17.79,17.68-30.95v-7.21c0-19.87-16.17-36.04-36.04-36.04h-111.9c-19.87,0-36.04,16.17-36.04,36.04v7.21c0,14.12,8.18,26.34,20.04,32.24v192.5c-97.61,31-164.44,121.36-164.44,225.19,0,62.79,24.35,121.91,68.57,166.48,44.17,44.53,103.06,69.38,165.85,69.99h1.9c128.51,0,234.58-104.58,236.44-233.18,1.36-104.1-64.53-195.5-162.06-227.69Z"/>
              <path class="cls-28" d="M227.78,149.77V-25.93c9.54-5.68,15.96-16.07,15.96-27.95v-6.51c0-17.94-14.6-32.54-32.54-32.54h-101.05c-17.94,0-32.54,14.6-32.54,32.54v6.51c0,12.75,7.39,23.78,18.1,29.12v173.82C7.57,177.05-52.78,258.65-52.78,352.4c0,56.7,21.99,110.09,61.92,150.33,39.89,40.21,93.06,62.65,149.76,63.2h1.72c116.05,0,211.82-94.43,213.5-210.56,1.22-94-58.27-176.53-146.34-205.6Z"/>
              <path class="cls-29" d="M220.57,159.09V2.27c8.51-5.07,14.25-14.34,14.25-24.95v-5.81c0-16.02-13.03-29.05-29.05-29.05h-90.19c-16.02,0-29.05,13.03-29.05,29.05v5.81c0,11.38,6.6,21.23,16.15,25.99v155.15C24.02,183.43-29.84,256.27-29.84,339.95c0,50.61,19.63,98.26,55.26,134.18,35.6,35.89,83.06,55.92,133.67,56.41h1.53c103.58,0,189.07-84.29,190.57-187.93,1.09-83.9-52.01-157.57-130.62-183.51Z"/>
              <path class="cls-30" d="M213.36,168.41V30.46c7.49-4.46,12.53-12.61,12.53-21.95V3.4c0-14.09-11.46-25.55-25.55-25.55h-79.33c-14.09,0-25.55,11.46-25.55,25.55v5.11c0,10.01,5.8,18.67,14.21,22.86v136.47C40.47,189.82-6.91,253.89-6.91,327.5c0,44.52,17.26,86.43,48.61,118.03,31.32,31.57,73.06,49.19,117.58,49.62h1.35c91.11,0,166.31-74.14,167.63-165.31.96-73.8-45.75-138.6-114.89-161.42Z"/>
              <path class="cls-31" d="M206.16,177.73V58.65c6.46-3.85,10.82-10.89,10.82-18.94v-4.41c0-12.16-9.89-22.05-22.05-22.05h-68.48c-12.16,0-22.05,9.89-22.05,22.05v4.41c0,8.64,5.01,16.12,12.26,19.73v117.8c-59.73,18.97-100.63,74.27-100.63,137.8,0,38.42,14.9,74.61,41.96,101.88,27.03,27.25,63.07,42.46,101.49,42.83h1.17c78.64,0,143.55-64,144.69-142.69.83-63.7-39.49-119.64-99.17-139.33Z"/>
              <path class="cls-23" d="M198.95,187.04v-100.2c5.44-3.24,9.1-9.16,9.1-15.94v-3.71c0-10.23-8.32-18.56-18.56-18.56h-57.62c-10.23,0-18.56,8.32-18.56,18.56v3.71c0,7.27,4.21,13.56,10.32,16.6v99.12c-50.26,15.96-84.68,62.49-84.68,115.96,0,32.33,12.54,62.78,35.31,85.73,22.75,22.93,53.07,35.73,85.4,36.04h.98c66.18,0,120.79-53.85,121.75-120.07.7-53.61-33.23-100.67-83.45-117.25Z"/>
              <path class="cls-26" d="M191.74,196.36v-81.32c4.41-2.63,7.39-7.44,7.39-12.94v-3.01c0-8.31-6.76-15.06-15.06-15.06h-46.77c-8.31,0-15.06,6.76-15.06,15.06v3.01c0,5.9,3.42,11.01,8.38,13.48v80.45c-40.79,12.95-68.73,50.72-68.73,94.11,0,26.24,10.18,50.95,28.66,69.58,18.46,18.61,43.07,29,69.31,29.25h.8c53.71,0,98.04-43.71,98.82-97.45.57-43.51-26.97-81.71-67.73-95.16Z"/>
              <path class="cls-25" d="M184.53,205.68v-62.44c3.39-2.02,5.67-5.71,5.67-9.93v-2.31c0-6.38-5.19-11.57-11.57-11.57h-35.91c-6.38,0-11.57,5.19-11.57,11.57v2.31c0,4.53,2.63,8.45,6.43,10.35v61.78c-31.32,9.95-52.77,38.95-52.77,72.27,0,20.15,7.81,39.12,22,53.43,14.18,14.29,33.07,22.27,53.22,22.46h.61c41.24,0,75.28-33.56,75.88-74.83.44-33.41-20.71-62.74-52.01-73.07Z"/>
            </g>
          </g>
        </g>
        <g class="cls-17">
          <g>
            <path class="cls-12" d="M227.41,278.63c-.53,36.55-30.73,66.11-67.29,65.82-36.61-.35-66.17-30.09-66.17-66.76,0-31.38,21.68-57.71,50.89-64.82,1.12-.29,1.88-1.29,1.88-2.41v-75.63h28.68v75.81c0,1.12.76,2.11,1.82,2.41,29.15,7.46,50.6,34.03,50.19,65.58Z"/>
            <rect class="cls-27" x="140.29" y="128.55" width="40.78" height="7.19" rx="2.44" ry="2.44"/>
          </g>
        </g>
      </g>
    </g>
  </g>
</svg>