<?xml version="1.0" encoding="UTF-8"?>
<svg xmlns="http://www.w3.org/2000/svg" xmlns:xlink="http://www.w3.org/1999/xlink" viewBox="0 0 578.43 374.54">
  <defs>
    <style>
      .cls-1 {
        fill: none;
      }

      .cls-2 {
        mask: url(#mask);
      }

      .cls-3 {
        fill: #e6e6e6;
      }

      .cls-4 {
        fill: url(#linear-gradient-8);
      }

      .cls-5 {
        fill: url(#linear-gradient-7);
      }

      .cls-6 {
        fill: url(#linear-gradient-5);
      }

      .cls-7 {
        fill: url(#linear-gradient-6);
      }

      .cls-8 {
        fill: url(#linear-gradient-9);
      }

      .cls-9 {
        fill: url(#linear-gradient-4);
      }

      .cls-10 {
        fill: url(#linear-gradient-3);
      }

      .cls-11 {
        fill: url(#linear-gradient-2);
      }

      .cls-12 {
        fill: url(#radial-gradient);
      }

      .cls-13 {
        fill: url(#linear-gradient);
      }

      .cls-14 {
        isolation: isolate;
      }

      .cls-15 {
        mask: url(#mask-1);
      }

      .cls-16 {
        clip-path: url(#clippath-1);
      }

      .cls-17 {
        fill: url(#linear-gradient-10);
      }

      .cls-18 {
        mix-blend-mode: overlay;
        opacity: .2;
      }

      .cls-19 {
        clip-path: url(#clippath);
      }
    </style>
    <mask id="mask" x="396.44" y="-638.76" width="1070.46" height="1652.06" maskUnits="userSpaceOnUse"/>
    <clipPath id="clippath">
      <rect class="cls-1" x="691.67" y="31.87" width="480" height="310.8"/>
    </clipPath>
    <linearGradient id="linear-gradient" x1="931.67" y1="-664.29" x2="931.67" y2="1188.25" gradientUnits="userSpaceOnUse">
      <stop offset=".03" stop-color="#002366" stop-opacity="0"/>
      <stop offset=".04" stop-color="#00296e" stop-opacity=".03"/>
      <stop offset=".14" stop-color="#00509e" stop-opacity=".2"/>
      <stop offset=".23" stop-color="#006fc4" stop-opacity=".33"/>
      <stop offset=".32" stop-color="#0085df" stop-opacity=".42"/>
      <stop offset=".4" stop-color="#0092f0" stop-opacity=".48"/>
      <stop offset=".47" stop-color="#0197f6" stop-opacity=".5"/>
      <stop offset=".56" stop-color="#0093f1" stop-opacity=".49"/>
      <stop offset=".65" stop-color="#0089e4" stop-opacity=".44"/>
      <stop offset=".73" stop-color="#0077cf" stop-opacity=".37"/>
      <stop offset=".8" stop-color="#005fb1" stop-opacity=".26"/>
      <stop offset=".88" stop-color="#00408a" stop-opacity=".13"/>
      <stop offset=".93" stop-color="#002366" stop-opacity="0"/>
    </linearGradient>
    <linearGradient id="linear-gradient-2" x1="931.67" y1="-624.32" x2="931.67" y2="1141.28" xlink:href="#linear-gradient"/>
    <linearGradient id="linear-gradient-3" x1="931.67" y1="-584.36" x2="931.67" y2="1094.3" xlink:href="#linear-gradient"/>
    <linearGradient id="linear-gradient-4" x1="931.67" y1="-544.4" x2="931.67" y2="1047.32" xlink:href="#linear-gradient"/>
    <linearGradient id="linear-gradient-5" x1="931.67" y1="-504.43" x2="931.67" y2="1000.35" xlink:href="#linear-gradient"/>
    <linearGradient id="linear-gradient-6" x1="931.67" y1="-464.47" x2="931.67" y2="953.37" xlink:href="#linear-gradient"/>
    <linearGradient id="linear-gradient-7" x1="931.67" y1="-424.5" x2="931.67" y2="906.39" xlink:href="#linear-gradient"/>
    <linearGradient id="linear-gradient-8" x1="931.67" y1="-384.54" x2="931.67" y2="859.41" xlink:href="#linear-gradient"/>
    <linearGradient id="linear-gradient-9" x1="296.12" y1="15.82" x2="296.12" y2="370.25" gradientUnits="userSpaceOnUse">
      <stop offset="0" stop-color="#fff"/>
      <stop offset=".8" stop-color="#000"/>
    </linearGradient>
    <mask id="mask-1" x="136.53" y="-.53" width="319.18" height="375.07" maskUnits="userSpaceOnUse">
      <rect class="cls-8" x="136.53" y="-.53" width="319.18" height="375.07"/>
    </mask>
    <clipPath id="clippath-1">
      <rect class="cls-1" y="0" width="578.43" height="374.54"/>
    </clipPath>
    <radialGradient id="radial-gradient" cx="302.56" cy="200.29" fx="302.56" fy="200.29" r="176.9" gradientTransform="translate(77.41 444.69) rotate(-71.78) scale(1 .69)" gradientUnits="userSpaceOnUse">
      <stop offset="0" stop-color="#0090d8"/>
      <stop offset=".01" stop-color="#0090db"/>
      <stop offset=".06" stop-color="#0094ea"/>
      <stop offset=".12" stop-color="#0096f3"/>
      <stop offset=".22" stop-color="#0197f6"/>
      <stop offset=".29" stop-color="#0094f2" stop-opacity=".98"/>
      <stop offset=".38" stop-color="#008de9" stop-opacity=".92"/>
      <stop offset=".48" stop-color="#0081db" stop-opacity=".81"/>
      <stop offset=".59" stop-color="#0070c6" stop-opacity=".67"/>
      <stop offset=".7" stop-color="#005bac" stop-opacity=".49"/>
      <stop offset=".82" stop-color="#00418b" stop-opacity=".26"/>
      <stop offset=".93" stop-color="#002366" stop-opacity="0"/>
    </radialGradient>
    <linearGradient id="linear-gradient-10" x1="289.22" y1="44.63" x2="289.22" y2="55.27" xlink:href="#linear-gradient"/>
  </defs>
  <g class="cls-14">
    <g id="Layer_1" data-name="Layer 1">
      <g class="cls-2">
        <g class="cls-19">
          <g>
            <path class="cls-13" d="M1099.92-30.19v-440.56c23.92-14.24,40.03-40.29,40.03-70.09v-16.33c0-44.99-36.6-81.6-81.6-81.6h-253.37c-44.99,0-81.6,36.6-81.6,81.6v16.33c0,31.97,18.53,59.63,45.38,73.01V-31.99c-221,70.18-372.32,274.79-372.32,509.86,0,142.16,55.13,276.03,155.25,376.94,100.02,100.82,233.34,157.09,375.51,158.46l4.31.02c290.97,0,531.13-236.8,535.34-527.97,3.07-235.7-146.1-442.64-366.93-515.52Z"/>
            <path class="cls-11" d="M1092.02-19.99v-419.88c22.8-13.57,38.15-38.4,38.15-66.8v-15.56c0-42.88-34.89-77.77-77.77-77.77h-241.47c-42.88,0-77.77,34.89-77.77,77.77v15.56c0,30.47,17.66,56.83,43.25,69.58V-21.7c-210.63,66.89-354.85,261.89-354.85,485.93,0,135.49,52.55,263.08,147.96,359.25,95.33,96.08,222.39,149.72,357.88,151.03h4.11c277.32.01,506.2-225.67,510.22-503.17,2.93-224.64-139.25-421.87-349.71-491.33Z"/>
            <path class="cls-10" d="M1084.13-9.78v-399.21c21.67-12.9,36.27-36.51,36.27-63.51v-14.8c0-40.77-33.17-73.94-73.94-73.94h-229.58c-40.77,0-73.94,33.17-73.94,73.94v14.8c0,28.97,16.79,54.04,41.12,66.15V-11.41c-200.26,63.59-337.38,248.99-337.38,462.01,0,128.82,49.96,250.12,140.68,341.56,90.63,91.35,211.44,142.35,340.26,143.59h3.91c263.66.01,481.27-214.56,485.09-478.4,2.78-213.58-132.39-401.1-332.49-467.14Z"/>
            <path class="cls-9" d="M1076.23.43v-378.53c20.55-12.24,34.39-34.61,34.39-60.22v-14.03c0-38.66-31.45-70.11-70.11-70.11h-217.69c-38.66,0-70.11,31.45-70.11,70.11v14.03c0,27.47,15.92,51.24,38.99,62.73V-1.12c-189.89,60.3-319.9,236.1-319.9,438.08,0,122.15,47.37,237.17,133.39,323.87,85.94,86.62,200.49,134.97,322.64,136.15h3.7c250.01.01,456.35-203.45,459.97-453.62,2.64-202.52-125.53-380.32-315.27-442.94Z"/>
            <path class="cls-6" d="M1068.34,10.63v-357.86c19.43-11.57,32.51-32.72,32.51-56.93v-13.26c0-36.55-29.73-66.28-66.28-66.28h-205.8c-36.55,0-66.28,29.73-66.28,66.28v13.26c0,25.97,15.05,48.44,36.86,59.3V9.17c-179.51,57.01-302.43,223.2-302.43,414.15,0,115.48,44.78,224.21,126.1,306.18,81.24,81.89,189.54,127.6,305.02,128.72h3.5c236.35.01,431.42-192.34,434.85-428.84,2.49-191.46-118.68-359.55-298.05-418.75Z"/>
            <path class="cls-7" d="M1060.44,20.84v-337.18c18.31-10.9,30.64-30.83,30.64-53.64v-12.5c0-34.44-28.01-62.45-62.45-62.45h-193.91c-34.44,0-62.45,28.01-62.45,62.45v12.5c0,24.47,14.18,45.64,34.73,55.87V19.46c-169.14,53.71-284.96,210.31-284.96,390.22,0,108.81,42.2,211.26,118.82,288.49,76.55,77.16,178.59,120.23,287.39,121.28h3.3c222.7.01,406.5-181.22,409.72-404.07,2.35-180.39-111.82-338.78-280.83-394.55Z"/>
            <path class="cls-5" d="M1052.54,31.04v-316.5c17.18-10.23,28.76-28.94,28.76-50.35v-11.73c0-32.32-26.3-58.62-58.62-58.62h-182.02c-32.32,0-58.62,26.3-58.62,58.62v11.73c0,22.97,13.31,42.84,32.6,52.45V29.75c-158.77,50.42-267.48,197.41-267.48,366.29,0,102.13,39.61,198.31,111.53,270.8,71.86,72.43,167.64,112.86,269.77,113.84h3.1c209.04.01,381.57-170.11,384.6-379.29,2.21-169.33-104.96-318-263.61-370.36Z"/>
            <path class="cls-4" d="M1044.65,41.25V-254.58c16.06-9.56,26.88-27.05,26.88-47.06v-10.97c0-30.21-24.58-54.79-54.79-54.79h-170.13c-30.21,0-54.79,24.58-54.79,54.79v10.97c0,21.47,12.44,40.04,30.47,49.02V40.04c-148.4,47.13-250.01,184.52-250.01,342.37,0,95.46,37.02,185.35,104.25,253.11,67.16,67.7,156.68,105.48,252.15,106.41h2.9c195.39.01,356.64-159,359.47-354.51,2.06-158.27-98.11-297.23-246.39-346.17Z"/>
          </g>
        </g>
      </g>
      <g>
        <g class="cls-15">
          <g class="cls-18">
            <path class="cls-3" d="M163.03,145.04h12.86c2.61,0,4.73-2.12,4.73-4.73v-40.34c0-1.26,1.02-2.28,2.28-2.28h48.81c1.26,0,2.28,1.02,2.28,2.28v27.54c0,1.24-.7,2.36-1.81,2.93-40.36,20.73-67.98,62.77-67.98,111.27,0,69.31,56.82,125.62,126.14,125.01,68.52-.6,123.88-56.34,123.88-125,0-48.05-27.11-89.77-66.87-110.7-1.09-.57-1.78-1.69-1.78-2.91v-28.14c0-1.26,1.02-2.28,2.28-2.28h47.67c1.26,0,2.28,1.02,2.28,2.28v40.34c0,2.61,2.12,4.73,4.73,4.73h12.86c2.18,0,4.05-1.56,4.44-3.7l13.88-75.22c.51-2.78-1.62-5.34-4.44-5.34h-120.65v92.37c0,1.49,1,2.8,2.44,3.17,38.47,9.82,66.81,44.95,66.25,86.61-.65,48.27-40.59,87.31-88.87,86.9-48.32-.41-87.36-39.7-87.36-88.12,0-41.47,28.65-76.26,67.24-85.63,1.46-.36,2.49-1.68,2.49-3.18V60.78s-121.68,0-121.68,0c-2.82,0-4.96,2.56-4.44,5.34l13.88,75.22c.4,2.14,2.26,3.7,4.44,3.7Z"/>
          </g>
        </g>
        <g class="cls-16">
          <g>
            <path class="cls-12" d="M377.29,242.87c-.7,48.25-40.57,87.26-88.82,86.88-48.33-.47-87.34-39.72-87.34-88.12,0-41.42,28.62-76.17,67.17-85.56,1.47-.39,2.48-1.7,2.48-3.18V53.07h37.85v100.06c0,1.47,1.01,2.79,2.41,3.18,38.47,9.85,66.79,44.91,66.24,86.56Z"/>
            <rect class="cls-17" x="262.3" y="44.78" width="53.83" height="9.48" rx="3.21" ry="3.21"/>
          </g>
        </g>
      </g>
    </g>
  </g>
</svg>