<?xml version="1.0" encoding="UTF-8"?>
<svg id="Layer_1" data-name="Layer 1" xmlns="http://www.w3.org/2000/svg" viewBox="0 0 272.96 316.92">
  <defs>
    <style>
      .cls-1 {
        fill: currentColor;
      }

      .cls-2 {
        fill: currentColor;
      }
    </style>
  </defs>
  <path class="cls-1" d="M119.16,133.56h2.53c.51,0,.93-.42.93-.93v-7.93c0-.25.2-.45.45-.45h9.6c.25,0,.45.2.45.45v5.42c0,.24-.14.46-.36.58-7.94,4.08-13.37,12.34-13.37,21.88,0,13.63,11.17,24.7,24.8,24.58,13.47-.12,24.36-11.08,24.36-24.58,0-9.45-5.33-17.65-13.15-21.76-.21-.11-.35-.33-.35-.57v-5.53c0-.25.2-.45.45-.45h9.37c.25,0,.45.2.45.45v7.93c0,.51.42.93.93.93h2.53c.43,0,.8-.31.87-.73l2.73-14.79c.1-.55-.32-1.05-.87-1.05h-23.72v18.16c0,.29.2.55.48.62,7.56,1.93,13.14,8.84,13.03,17.03-.13,9.49-7.98,17.17-17.47,17.09-9.5-.08-17.18-7.81-17.18-17.33,0-8.15,5.63-14.99,13.22-16.84.29-.07.49-.33.49-.63v-18.11s-23.92,0-23.92,0c-.56,0-.97.5-.87,1.05l2.73,14.79c.08.42.45.73.87.73Z"/>
  <g>
    <g>
      <path class="cls-1" d="M98.9,117.98c-.38.64-.83,1.13-1.33,1.45-.5.32-1.05.47-1.64.45-.6-.02-1.23-.24-1.91-.64-.68-.41-1.17-.86-1.47-1.38-.3-.51-.42-1.06-.38-1.66.05-.59.27-1.21.65-1.85.38-.64.83-1.13,1.33-1.45.5-.32,1.05-.47,1.64-.45.59.02,1.23.24,1.91.64.68.41,1.17.86,1.47,1.38.3.51.43,1.07.38,1.66s-.27,1.21-.65,1.85ZM97.7,117.27c.15-.24.24-.48.28-.72.04-.23.02-.45-.04-.67s-.18-.41-.35-.6c-.17-.19-.38-.35-.63-.51l-.38-.22c-.26-.16-.51-.27-.76-.33-.24-.06-.47-.07-.69-.03-.22.04-.42.14-.61.28-.19.14-.35.34-.5.58-.15.25-.24.49-.28.72-.04.23-.02.45.04.66.07.21.18.41.35.59.17.19.38.36.64.51l.38.22c.26.15.51.26.75.32.24.06.47.07.69.03.22-.04.42-.13.6-.28.19-.14.35-.34.51-.59Z"/>
      <path class="cls-1" d="M101.03,114.26l-5.26-4.36,1.66-2,2.87,1.31c.1.04.24.1.41.18.17.08.35.17.53.26.18.09.35.18.49.25l.05-.06c-.08-.1-.17-.22-.28-.37-.11-.14-.23-.29-.35-.45-.12-.16-.23-.31-.34-.45l-1.8-2.58,1.61-1.95,5.26,4.36-1.1,1.33-2.24-1.86c-.22-.18-.44-.37-.66-.56-.22-.19-.42-.36-.6-.52-.18-.16-.31-.27-.39-.34l-.05.06c.06.08.15.2.27.35s.24.31.36.48c.12.17.23.31.32.44l2.1,3.03-.91,1.1-3.38-1.49c-.12-.06-.27-.13-.44-.21-.17-.08-.35-.17-.52-.26-.18-.09-.33-.16-.45-.22l-.05.06c.14.11.3.23.5.39.2.15.4.31.61.48.21.17.41.33.59.48l2.24,1.86-1.03,1.25Z"/>
      <path class="cls-1" d="M106.63,107.74l-4.59-5.06,4.18-3.79.94,1.03-2.86,2.59.86.95,2.5-2.27.92,1.01-2.5,2.27.94,1.04,2.91-2.64.94,1.03-4.23,3.84Z"/>
      <path class="cls-1" d="M114.08,101.74c-.91.62-1.76.86-2.56.7-.8-.16-1.54-.72-2.22-1.71-.45-.65-.7-1.27-.77-1.86-.06-.59.05-1.14.35-1.67.3-.52.76-1,1.39-1.43.38-.26.76-.46,1.16-.6.39-.14.78-.22,1.15-.22.37,0,.72.07,1.04.24.32.16.6.42.84.77l-1.44.99c-.1-.15-.23-.26-.37-.33-.15-.07-.31-.11-.48-.11-.17,0-.35.03-.53.1s-.36.15-.53.27c-.25.17-.45.36-.6.56-.15.2-.24.41-.27.63-.03.22-.01.45.06.69.07.24.2.49.38.75l.25.36c.24.35.5.6.77.76.27.16.56.22.86.19.3-.03.61-.16.94-.39.25-.17.45-.37.6-.58.15-.21.23-.43.25-.66.02-.23-.04-.44-.18-.64l-.03-.04-1.52,1.04-.71-1.03,2.94-2.03,2.13,3.09-.85.59-.55-.49c-.06.27-.16.52-.28.76-.12.24-.28.46-.48.67-.2.21-.44.41-.73.61Z"/>
      <path class="cls-1" d="M117.21,99.44l-.77-7.26,1.91-.96,5.35,4.96-1.7.85-.9-.88-2.44,1.22.17,1.24-1.64.82ZM118.47,96l1.66-.83-1.08-1.07c-.06-.05-.12-.12-.21-.2s-.17-.17-.25-.26c-.09-.09-.17-.19-.26-.29-.09-.1-.16-.18-.24-.25l-.06.03c.03.12.06.27.09.43.03.16.05.33.08.49.03.16.05.31.07.43l.2,1.51Z"/>
      <path class="cls-1" d="M125.79,95.45l-2.07-6.51,1.7-.54,1.63,5.12,3.31-1.05.44,1.39-5.01,1.59Z"/>
      <path class="cls-1" d="M130.65,93.85l1.26-7.19,2.1-.39,3.78,6.24-1.87.35-.62-1.09-2.68.5-.18,1.24-1.8.34ZM132.81,90.88l1.83-.34-.74-1.33c-.04-.07-.09-.15-.14-.25-.06-.1-.11-.21-.17-.32-.06-.11-.12-.23-.17-.35s-.11-.22-.16-.3h-.07c0,.14-.01.29-.03.45l-.06.5c-.02.17-.04.31-.06.44l-.22,1.51Z"/>
      <path class="cls-1" d="M138.15,92.51l-.37-6.82,4.17-.22c.35-.02.67.03.97.16.29.12.53.31.71.55.18.24.28.53.3.87.02.3-.02.56-.11.77-.09.22-.22.4-.38.54-.16.14-.35.25-.55.33v.04c.25.04.48.12.68.25.21.13.37.3.5.53.13.23.2.5.22.83.02.39-.05.73-.22,1.01-.17.28-.4.51-.7.67s-.63.25-1.01.27l-4.2.23ZM139.71,88.3l1.78-.1c.15,0,.27-.04.37-.11.1-.07.17-.15.22-.26s.07-.24.06-.38c-.01-.21-.08-.37-.22-.49-.13-.11-.29-.16-.49-.15l-1.81.1.08,1.39ZM139.86,91.05l1.94-.1c.21-.01.38-.08.5-.22.12-.13.18-.33.16-.59,0-.14-.04-.26-.1-.37s-.15-.19-.26-.24-.25-.08-.41-.07l-1.91.1.08,1.48Z"/>
      <path class="cls-1" d="M148.36,92.58c-.75-.06-1.38-.24-1.89-.55-.51-.3-.89-.73-1.13-1.28-.24-.55-.33-1.21-.26-2,.06-.79.26-1.43.59-1.92.33-.5.77-.85,1.32-1.07.55-.22,1.2-.3,1.95-.23s1.38.24,1.89.55c.51.31.89.73,1.13,1.27.24.54.33,1.21.26,1.99-.06.79-.26,1.43-.59,1.93-.33.5-.77.86-1.32,1.07-.55.22-1.2.3-1.95.23ZM148.48,91.19c.28.02.54,0,.76-.07.22-.07.42-.18.58-.33.16-.15.29-.35.38-.58.09-.23.15-.5.18-.79l.03-.44c.03-.3.01-.58-.04-.82-.05-.24-.15-.45-.28-.63-.13-.18-.31-.32-.52-.42-.21-.1-.46-.17-.74-.19-.29-.02-.55,0-.77.07-.23.07-.42.18-.58.33-.16.15-.28.35-.38.58-.09.23-.15.5-.18.8l-.04.44c-.02.3-.01.57.04.81.05.24.15.45.28.63.13.18.3.32.51.42.21.1.46.17.75.19Z"/>
      <path class="cls-1" d="M152.68,92.9l1.5-6.67,3.87.87c.49.11.88.3,1.17.55.29.26.48.57.57.92.09.36.09.73,0,1.13-.1.43-.28.78-.55,1.07-.27.29-.61.49-1.01.59l.74,2.94-1.94-.44-.58-2.6-1.52-.34-.53,2.35-1.74-.39ZM155.24,89.66l1.8.4c.24.05.45.02.63-.11s.3-.32.36-.59c.04-.17.04-.33,0-.47-.04-.14-.1-.25-.21-.35-.1-.09-.24-.16-.4-.2l-1.8-.4-.38,1.71Z"/>
      <path class="cls-1" d="M158.86,94.28l4.78-5.52,2.01.74.03,7.3-1.78-.66.03-1.25-2.56-.95-.79.97-1.72-.64ZM162.24,92.84l1.74.65.04-1.52c0-.08,0-.17,0-.29,0-.12.01-.24.02-.36,0-.13.02-.26.03-.39s.02-.24.02-.34l-.06-.02c-.07.11-.15.23-.26.36-.1.13-.2.26-.31.4s-.19.25-.27.35l-.97,1.18Z"/>
      <path class="cls-1" d="M166.85,97.48l2.42-4.8-1.98-1,.66-1.31,5.55,2.8-.66,1.31-1.98-1-2.42,4.8-1.59-.8Z"/>
      <path class="cls-1" d="M173.34,101.36c-.62-.42-1.08-.89-1.38-1.4-.3-.52-.41-1.07-.36-1.66s.31-1.22.75-1.87.93-1.12,1.45-1.39c.53-.27,1.09-.37,1.67-.28.59.08,1.19.33,1.82.75.62.42,1.08.89,1.37,1.4.3.52.42,1.07.36,1.66-.06.59-.3,1.21-.75,1.87s-.93,1.12-1.46,1.39c-.53.27-1.09.37-1.68.29s-1.19-.33-1.81-.75ZM174.12,100.21c.24.16.47.27.7.32s.45.05.67,0c.22-.05.42-.16.62-.32.19-.16.37-.36.54-.61l.25-.36c.17-.25.29-.5.37-.74.07-.24.09-.47.06-.69-.03-.22-.11-.43-.25-.62-.13-.19-.32-.37-.55-.53-.24-.16-.48-.27-.71-.32-.23-.05-.45-.05-.67,0s-.42.16-.61.32c-.19.16-.38.36-.55.61l-.25.36c-.17.25-.29.49-.36.73-.07.24-.1.47-.07.69.03.22.11.43.24.62.13.19.32.37.56.54Z"/>
      <path class="cls-1" d="M176.91,103.74l4.57-5.08,2.95,2.65c.37.34.62.69.75,1.06s.14.73.05,1.09c-.09.36-.28.69-.55.99-.29.33-.63.55-1.01.67-.38.12-.77.13-1.17.03l-.79,2.93-1.48-1.33.76-2.55-1.16-1.04-1.61,1.79-1.32-1.19ZM180.73,102.15l1.37,1.23c.18.16.38.24.6.21.22-.02.42-.13.6-.34.12-.13.2-.27.23-.41.03-.14.03-.27-.01-.4-.04-.13-.13-.26-.26-.37l-1.37-1.23-1.17,1.3Z"/>
      <path class="cls-1" d="M182.12,108.63l5.03-4.63,1.21,1.31-5.03,4.63-1.21-1.31Z"/>
      <path class="cls-1" d="M184.17,110.82l5.43-4.15,3.42,4.48-1.11.85-2.34-3.07-1.02.78,2.05,2.68-1.08.83-2.05-2.68-1.12.85,2.39,3.12-1.11.85-3.47-4.54Z"/>
      <path class="cls-1" d="M189.39,118.52c-.22-.37-.39-.74-.51-1.11-.13-.36-.19-.72-.18-1.05,0-.34.08-.65.24-.93.16-.29.42-.53.77-.74.02-.01.05-.03.08-.05.03-.02.05-.03.07-.03l.87,1.49s-.04.02-.07.03c-.03.01-.05.02-.07.03-.18.11-.3.24-.36.4-.06.16-.06.34,0,.54.05.2.15.41.28.64.07.13.15.24.22.34s.15.19.23.26c.08.07.16.12.24.16.08.04.16.06.24.06.08,0,.16-.03.24-.08.13-.08.21-.19.24-.34.03-.15.02-.33-.02-.53s-.1-.42-.17-.67-.15-.49-.22-.76c-.08-.26-.13-.52-.17-.79-.04-.26-.04-.52,0-.76.03-.25.12-.48.26-.69s.35-.41.63-.57c.31-.18.62-.27.92-.27s.59.07.87.22c.28.15.54.35.78.62s.47.57.67.91c.2.34.35.67.45,1.01s.15.66.14.97c-.01.31-.09.6-.24.86s-.37.48-.68.67l-.1.06-.86-1.48.06-.04c.13-.08.23-.18.28-.31.06-.13.08-.28.05-.46s-.1-.37-.22-.58c-.12-.21-.25-.38-.37-.5-.13-.12-.25-.2-.37-.23-.12-.03-.23-.02-.33.04-.13.07-.2.18-.22.33-.02.15-.01.32.03.53.04.21.1.43.18.67s.15.49.23.75c.08.26.14.52.18.78.04.26.05.51.02.76s-.11.48-.24.69c-.13.21-.33.39-.6.55-.47.27-.91.39-1.33.33-.42-.05-.8-.23-1.16-.54-.36-.31-.68-.71-.96-1.19Z"/>
    </g>
    <g>
      <path class="cls-2" d="M89.34,126.96c.09-.27.23-.49.42-.66.19-.17.41-.28.66-.33s.51-.03.78.06.49.23.66.42c.17.19.28.41.33.66.05.25.03.51-.06.78-.09.27-.23.49-.42.66-.19.17-.41.28-.66.33-.25.05-.51.03-.78-.06s-.49-.23-.66-.42c-.17-.19-.28-.41-.33-.66-.05-.25-.04-.51.05-.78Z"/>
      <path class="cls-2" d="M85.15,135.51l6.81.64-.24,2.59-3.11.54c-.11.02-.26.05-.44.08-.19.03-.38.06-.58.09-.2.03-.38.05-.55.07v.08c.12.04.26.09.43.14.17.06.35.12.54.18.19.06.37.12.53.18l2.94,1.11-.23,2.52-6.81-.64.16-1.72,2.9.27c.28.03.57.05.86.09.29.03.55.06.79.09s.41.05.51.06v-.08c-.09-.03-.23-.07-.41-.13-.18-.06-.37-.12-.57-.19-.2-.07-.37-.13-.51-.18l-3.44-1.32.13-1.43,3.63-.67c.13-.02.3-.05.49-.07.19-.03.38-.06.58-.08.2-.03.36-.05.5-.07v-.08c-.16,0-.38-.02-.62-.04-.25-.02-.51-.03-.77-.05-.27-.02-.52-.04-.76-.06l-2.9-.27.15-1.61Z"/>
      <path class="cls-2" d="M84.48,145.1l6.83-.33.27,5.63-1.39.07-.19-3.86-1.28.06.16,3.37-1.36.07-.16-3.37-1.4.07.19,3.92-1.39.07-.27-5.7Z"/>
      <path class="cls-2" d="M84.94,152.45l6.73-1.2.5,2.81c.13.73.12,1.37-.03,1.92-.15.55-.45,1-.9,1.35-.45.35-1.05.6-1.83.73-.76.14-1.42.12-1.96-.06s-.99-.49-1.32-.96c-.33-.46-.56-1.06-.69-1.79l-.5-2.81ZM86.62,153.96l.19,1.04c.05.27.13.51.24.69.11.19.26.34.43.45.17.11.38.18.61.2.23.03.49.01.78-.04l.41-.07c.29-.05.55-.13.76-.24s.38-.24.5-.4c.13-.16.21-.35.25-.57.04-.22.04-.46,0-.74l-.19-1.04-3.99.71Z"/>
      <path class="cls-2" d="M86.51,160.13l6.58-1.85.48,1.71-6.58,1.85-.48-1.71Z"/>
      <path class="cls-2" d="M88.49,166.58c-.27-.69-.37-1.32-.32-1.89.05-.57.27-1.08.67-1.51s.96-.8,1.71-1.09c1.1-.43,2.03-.47,2.79-.13.76.34,1.34,1.03,1.74,2.06.22.58.32,1.12.3,1.64s-.18.98-.47,1.38c-.29.4-.72.71-1.3.94l-.63-1.62c.27-.11.48-.25.64-.43.15-.18.24-.39.27-.63.03-.24-.01-.49-.12-.77-.13-.35-.32-.6-.55-.77-.23-.17-.5-.25-.8-.25-.31,0-.65.07-1.03.22l-.42.16c-.38.15-.68.32-.91.53-.23.21-.37.45-.42.72-.05.27-.01.58.12.93.12.3.26.53.44.7.18.17.39.27.62.3s.49,0,.76-.11l.61,1.57c-.58.22-1.1.29-1.58.19-.48-.1-.9-.33-1.26-.69-.36-.37-.66-.85-.89-1.44Z"/>
      <path class="cls-2" d="M90.1,170.29l7.23-1.04,1.03,1.87-4.76,5.54-.91-1.67.84-.93-1.31-2.39-1.23.21-.88-1.6ZM93.59,171.41l.9,1.63,1.03-1.12c.05-.06.12-.13.19-.21.08-.08.16-.17.25-.26.09-.09.18-.18.28-.27.09-.09.17-.17.24-.25l-.03-.06c-.12.04-.27.07-.43.11-.16.03-.33.07-.49.1s-.31.06-.43.08l-1.5.26Z"/>
      <path class="cls-2" d="M94.32,177.65l5.55-3.99,1.04,1.45-4.36,3.14,2.03,2.82-1.19.85-3.07-4.26Z"/>
      <path class="cls-2" d="M99.55,184.47l4.89-4.77,2.63,2.69c.32.33.53.68.63,1.05s.08.73-.03,1.09c-.12.36-.34.7-.66,1.01-.33.32-.68.54-1.05.65-.37.11-.74.1-1.11,0-.37-.11-.72-.33-1.04-.66l-1.35-1.39-1.65,1.61-1.24-1.27ZM103.42,183.17l1.06,1.09c.19.2.4.3.61.29.21,0,.42-.1.62-.3.14-.14.24-.28.28-.41.05-.13.05-.27.01-.41-.04-.14-.12-.28-.26-.41l-1.06-1.09-1.27,1.24Z"/>
      <path class="cls-2" d="M107.32,191.84c-.59-.46-1.02-.96-1.27-1.5-.26-.54-.34-1.1-.24-1.69.1-.59.39-1.19.88-1.82.49-.62,1-1.05,1.55-1.28.55-.23,1.11-.29,1.69-.17.58.12,1.17.41,1.76.88.59.46,1.02.96,1.27,1.5s.34,1.1.24,1.68c-.1.59-.39,1.19-.87,1.81-.49.62-1,1.05-1.55,1.29-.55.24-1.11.29-1.69.17-.58-.12-1.17-.41-1.76-.88ZM108.17,190.74c.22.18.45.3.67.36.23.07.45.08.67.04.22-.04.43-.13.64-.27s.4-.33.58-.57l.27-.34c.19-.24.33-.48.42-.71.09-.23.13-.46.11-.68s-.08-.44-.2-.64-.29-.39-.52-.57c-.23-.18-.46-.3-.68-.37-.23-.07-.45-.08-.66-.04-.22.04-.43.13-.63.28-.2.14-.4.33-.59.58l-.27.34c-.18.24-.32.47-.41.7-.09.23-.13.46-.12.68.01.22.08.43.2.63s.29.39.52.57Z"/>
      <path class="cls-2" d="M111.6,194.81l3.5-5.87,1.53.91-2.75,4.62,2.98,1.78-.75,1.26-4.51-2.69Z"/>
      <path class="cls-2" d="M117.86,198.31l1.15-2.45-.66-4.88,1.86.88.3,2.97.04.02,2.47-1.66,1.76.83-4.16,2.61-1.15,2.45-1.62-.76Z"/>
      <path class="cls-2" d="M125.85,201.65c-.7-.23-1.26-.54-1.67-.94-.41-.4-.66-.89-.76-1.47s-.01-1.25.23-2.02c.36-1.12.92-1.87,1.66-2.25.74-.38,1.64-.4,2.7-.06.59.19,1.08.46,1.47.8.39.35.65.76.78,1.23.13.48.1,1.01-.09,1.6l-1.66-.53c.09-.28.11-.53.06-.77-.05-.23-.15-.44-.32-.61-.16-.17-.39-.3-.67-.39-.35-.11-.67-.13-.94-.06-.27.07-.51.23-.7.46s-.35.55-.48.93l-.14.43c-.12.39-.18.73-.16,1.04.02.31.12.57.3.78.18.21.44.38.8.49.3.1.58.13.82.1.24-.03.45-.13.63-.29.17-.16.31-.38.4-.66l1.6.52c-.19.59-.47,1.04-.85,1.35-.38.31-.82.49-1.34.54s-1.07-.02-1.68-.22Z"/>
      <path class="cls-2" d="M130.47,202.84l1.28-6.71,1.75.33-1.01,5.28,3.41.65-.27,1.44-5.16-.98Z"/>
      <path class="cls-2" d="M136.84,203.92l.71-6.8,1.77.19-.71,6.8-1.77-.19Z"/>
      <path class="cls-2" d="M140.4,204.29l.11-6.83,1.58.03,2.44,3.21c.05.05.11.13.18.23.07.1.15.2.22.31s.12.19.15.25h.05c0-.15,0-.3,0-.43,0-.14,0-.25,0-.34l.05-3.17,1.65.03-.11,6.83-1.57-.03-2.58-3.38c-.08-.11-.16-.22-.24-.33-.07-.11-.13-.21-.18-.28h-.05c0,.12,0,.22,0,.33,0,.11,0,.2,0,.27l-.05,3.34-1.65-.03Z"/>
      <path class="cls-2" d="M148.61,204.17l-.63-6.81,1.77-.16.63,6.81-1.77.16Z"/>
      <path class="cls-2" d="M155.31,203.38c-.72.14-1.36.13-1.91-.03-.55-.15-1.01-.46-1.37-.93-.36-.47-.61-1.09-.76-1.88-.22-1.16-.09-2.08.38-2.77.47-.69,1.25-1.13,2.34-1.34.61-.12,1.16-.11,1.67,0,.51.12.93.35,1.27.71.34.36.57.84.68,1.44l-1.71.32c-.05-.29-.16-.52-.31-.71-.15-.18-.34-.31-.57-.38-.23-.07-.49-.08-.78-.02-.37.07-.65.2-.86.4-.21.19-.34.44-.4.74-.06.3-.05.65.03,1.05l.08.44c.08.4.2.73.36.99.16.26.38.44.63.55s.57.12.94.05c.31-.06.57-.16.77-.31.2-.15.34-.33.41-.56.08-.23.09-.48.03-.77l1.65-.31c.12.61.08,1.14-.1,1.59-.18.45-.48.82-.91,1.12s-.95.5-1.58.61Z"/>
      <path class="cls-2" d="M164.79,200.72c-.64.24-1.2.37-1.69.37-.49,0-.9-.09-1.23-.28s-.56-.47-.7-.84c-.16-.41-.17-.79-.05-1.13.12-.34.33-.63.65-.87v-.04c-.34,0-.65-.08-.93-.23-.28-.15-.49-.4-.62-.75-.13-.35-.14-.71-.03-1.06s.35-.68.7-.99c.35-.31.82-.57,1.41-.79.58-.22,1.1-.33,1.58-.34.47,0,.87.08,1.19.26.32.18.55.44.67.77l.09.23-1.41.54-.05-.14c-.06-.15-.16-.25-.3-.32-.14-.07-.31-.09-.52-.08-.21.02-.45.08-.73.18-.21.08-.39.17-.53.28-.15.1-.26.22-.33.33-.08.12-.12.24-.14.36-.01.12,0,.25.05.37.06.17.16.29.28.37s.26.12.41.12c.15,0,.3-.02.45-.08l.81-.31.4,1.05-.91.35c-.16.06-.3.14-.43.25-.13.1-.21.23-.25.38s-.02.32.06.53c.07.19.18.34.33.43.15.1.34.14.57.14s.5-.07.81-.19c.34-.13.59-.27.76-.42s.27-.32.31-.49c.03-.17.02-.35-.05-.53l-.69-1.83,2.51-.95.4,1.05-1.09.41.28.75c.16.42.2.82.12,1.21-.08.39-.29.75-.64,1.08-.35.33-.85.61-1.49.86Z"/>
      <path class="cls-2" d="M171.62,197.59l-3.42-5.92,1.54-.89,2.68,4.65,3.01-1.74.73,1.27-4.55,2.63Z"/>
      <path class="cls-2" d="M176.79,194.6l-2.06-7,1.71-1.29,6.16,3.92-1.52,1.14-1.04-.7-2.18,1.64.39,1.19-1.46,1.1ZM177.41,190.99l1.49-1.12-1.26-.86c-.07-.04-.15-.1-.24-.16-.09-.07-.19-.14-.3-.21-.1-.08-.2-.15-.31-.24-.1-.08-.2-.15-.28-.2l-.06.04c.05.12.11.25.17.41.06.16.11.31.17.47.06.16.1.3.15.41l.47,1.45Z"/>
      <path class="cls-2" d="M183.53,189.38l-4.79-4.88,2.98-2.93c.25-.25.53-.42.83-.52.3-.1.6-.12.9-.06.3.06.56.21.8.45.21.21.35.43.43.65.08.22.1.44.07.65-.03.21-.09.42-.2.61l.03.03c.21-.13.44-.22.67-.26.24-.04.48-.02.72.06.25.08.48.24.72.48.27.28.44.58.5.91.06.33.03.65-.08.97s-.31.61-.58.87l-3,2.95ZM181.91,185.19l1.27-1.25c.1-.1.17-.21.2-.33.03-.11.03-.23,0-.34-.03-.12-.1-.22-.2-.33-.15-.15-.31-.23-.48-.22-.17,0-.33.07-.47.21l-1.29,1.27.98.99ZM183.84,187.15l1.38-1.36c.15-.15.23-.31.23-.49,0-.18-.08-.36-.27-.55-.1-.1-.2-.17-.32-.21-.12-.04-.23-.04-.35,0-.12.03-.24.11-.35.22l-1.36,1.34,1.04,1.06Z"/>
      <path class="cls-2" d="M191.17,181.25c-.46.59-.95,1.02-1.49,1.28-.53.26-1.09.35-1.68.25-.59-.09-1.2-.38-1.82-.86-.62-.48-1.06-.99-1.29-1.54-.24-.54-.3-1.11-.18-1.69.12-.58.41-1.17.86-1.76.46-.59.95-1.02,1.49-1.28.53-.26,1.09-.35,1.68-.26.59.09,1.19.38,1.82.86s1.06,1,1.3,1.54c.24.55.3,1.11.18,1.69-.12.58-.41,1.17-.86,1.76ZM190.07,180.4c.17-.23.29-.45.36-.68.07-.23.08-.45.04-.67s-.13-.43-.28-.63c-.15-.2-.34-.4-.57-.58l-.35-.27c-.24-.19-.48-.32-.71-.41-.23-.09-.46-.12-.68-.11-.22.02-.44.09-.64.21-.2.12-.39.29-.56.52-.18.23-.3.46-.37.69-.07.23-.08.45-.03.66.04.22.13.43.28.63.14.2.34.4.58.58l.35.27c.24.18.47.32.7.41.23.09.46.13.68.11.22-.01.43-.08.63-.2.2-.12.39-.3.57-.53Z"/>
      <path class="cls-2" d="M194.16,176.92l-5.94-3.39,1.97-3.45c.25-.44.54-.76.87-.96s.68-.29,1.05-.28c.37.02.73.12,1.08.32.38.22.67.5.86.84.2.35.29.72.27,1.14l3.03.15-.99,1.73-2.65-.21-.77,1.36,2.09,1.19-.88,1.55ZM191.8,173.53l.91-1.6c.12-.21.15-.42.08-.63s-.22-.38-.45-.52c-.16-.09-.3-.14-.45-.14-.14,0-.27.03-.39.1-.12.07-.22.18-.31.33l-.91,1.6,1.52.87Z"/>
      <path class="cls-2" d="M197.72,170.6l-5.37-4.95.8-1.98,7.3.19-.72,1.76-1.25-.07-1.03,2.53.94.82-.69,1.7ZM196.39,167.19l.7-1.72-1.52-.09c-.08,0-.17,0-.29-.02-.11,0-.24-.02-.36-.03-.13-.01-.26-.03-.39-.04-.13-.02-.24-.03-.34-.03l-.03.06c.11.07.22.16.35.27.13.11.26.21.39.32.13.11.24.2.34.28l1.15,1Z"/>
      <path class="cls-2" d="M200.99,161.81l-5.17-1.45-.6,2.14-1.41-.39,1.67-5.99,1.41.39-.6,2.14,5.17,1.45-.48,1.71Z"/>
      <path class="cls-2" d="M202.92,153.59c-.11.74-.33,1.36-.67,1.85s-.78.84-1.34,1.04c-.56.21-1.23.25-2.01.14s-1.41-.35-1.88-.71c-.47-.36-.8-.82-.98-1.39-.18-.57-.22-1.22-.11-1.96.11-.74.33-1.36.67-1.85.34-.49.78-.84,1.34-1.05.56-.21,1.23-.25,2.01-.14s1.41.35,1.89.71c.48.36.81.82.99,1.39.18.57.22,1.22.11,1.96ZM201.54,153.39c.04-.28.03-.54-.02-.77-.05-.23-.15-.43-.29-.6-.14-.17-.33-.31-.55-.42-.23-.11-.49-.18-.78-.22l-.43-.06c-.3-.04-.58-.05-.82,0-.25.04-.46.12-.65.24-.19.12-.34.29-.45.49s-.2.45-.24.73c-.04.29-.04.55.02.78.05.23.15.43.29.6.14.17.33.31.55.41.23.11.49.18.79.23l.43.06c.3.04.57.05.81,0,.25-.04.46-.12.65-.24.19-.12.34-.28.45-.49.12-.2.2-.45.24-.74Z"/>
      <path class="cls-2" d="M203.38,148.39l-6.83-.11.06-3.97c0-.5.11-.92.3-1.26.19-.34.46-.58.79-.75.33-.16.7-.24,1.1-.24.44,0,.83.11,1.16.32.34.21.6.5.79.86l2.73-1.33-.03,1.99-2.42,1.09-.03,1.56,2.41.04-.03,1.78ZM199.68,146.55l.03-1.84c0-.25-.07-.44-.23-.6-.16-.15-.38-.23-.65-.23-.18,0-.33.03-.46.09-.13.06-.23.16-.3.27-.07.12-.11.26-.11.44l-.03,1.84,1.75.03Z"/>
      <path class="cls-2" d="M203.11,138.67l-2.69.32-3.78,3.15-.24-2.04,2.36-1.82v-.05s-2.73-1.21-2.73-1.21l-.23-1.94,4.41,2.14,2.69-.32.21,1.78Z"/>
      <path class="cls-2" d="M198.61,126.92c.09.27.11.53.05.78-.05.25-.16.47-.33.66-.17.19-.39.33-.66.42-.27.09-.53.11-.78.06-.25-.05-.47-.16-.66-.33-.19-.17-.33-.39-.42-.66-.09-.27-.11-.53-.06-.78.05-.25.16-.47.33-.66.17-.19.39-.33.66-.42.27-.09.53-.11.78-.06.25.05.47.16.66.33.19.17.33.39.42.66Z"/>
    </g>
  </g>
  <path class="cls-1" d="M143.97,221.38c-42.16,0-76.45-34.3-76.45-76.45s34.3-76.45,76.45-76.45,76.45,34.3,76.45,76.45-34.3,76.45-76.45,76.45ZM143.97,74.57c-38.79,0-70.35,31.56-70.35,70.35s31.56,70.35,70.35,70.35,70.35-31.56,70.35-70.35-31.56-70.35-70.35-70.35Z"/>
</svg>
