<?xml version="1.0" encoding="UTF-8"?>
<svg id="Layer_1" data-name="Layer 1" xmlns="http://www.w3.org/2000/svg" viewBox="0 0 181.59 248.67">
  <defs>
    <style>
      .cls-1 {
        fill: #0047ab;
      }
    </style>
  </defs>
  <path class="cls-1" d="M106.74,91.47c-31.71-9.38-58.16,23.75-42.26,52.47-.24.23-.54.51-.62.62-5.55,5.53-14.2,14.23-20.37,20.38-.14.14-.36.14-.5,0-2.14-2.14-5.81-5.81-8.13-8.13-.16-.16-.13-.43.07-.55l7.68-4.85c.23-.15.31-.45.18-.69l-.83-1.5c-.13-.24-.43-.33-.67-.21l-11,5.32-1.58.77c-.45.22-.55.81-.2,1.16,2.79,2.79,12.08,12.11,13.29,13.3l.95.95c.28.28.74.28,1.02,0l.95-.95c6.13-6.11,16.04-16.06,22.08-22.08.37-.37.83-.81,1.2-1.22.91-1.04,1.08-2.63.37-3.83-.44-.84-.98-1.77-1.38-2.61-6.4-13.13-2.55-29.86,8.97-38.87,12.51-10.11,31.59-9,42.83,2.51,13.6,13.6,11.94,36.81-3.55,48.23-10.15,7.86-24.98,8.52-35.89,1.82-1.39-.9-3.31-.56-4.37.7-.48.48-1.71,1.7-2.21,2.21-5.37,5.38-15.13,15.13-20.61,20.61l-.95.95c-.28.28-.28.74,0,1.02l.95.95c1.13,1.12,10.16,10.17,12.83,12.83.34.34.91.26,1.13-.17,1.35-2.53,4.86-9.13,5.96-11.19.13-.24.05-.53-.18-.68l-1.27-.8c-.23-.14-.53-.09-.69.13l-4.76,6.47c-.13.18-.39.2-.55.04l-7.85-7.85c-.14-.14-.15-.36,0-.51,3.26-3.26,10.07-10.07,10.07-10.07,3.02-3.03,7.74-7.73,10.85-10.85,11,6.48,25.31,6.56,36.35.12,27.21-15.98,22.8-56.32-7.3-65.95Z"/>
</svg>