<?xml version="1.0" encoding="UTF-8"?>
<svg id="Layer_1" data-name="Layer 1" xmlns="http://www.w3.org/2000/svg" viewBox="0 0 181.59 182.75">
  <defs>
    <style>
      .cls-1 {
        fill: currentColor;
      }
    </style>
  </defs>
  <g>
    <path class="cls-1" d="M37.14,65.93l-.24-1.54c-.07-.44.27-.83.71-.83h1.56c1.47,0,15.19,0,18.9,0,.45,0,.79.41.7.85-.6,2.84-2.41,11.19-2.91,13.55-.05.26-.3.43-.56.4l-1.28-.18c-.25-.03-.43-.25-.42-.5.1-1.56.43-6.83.6-9.62.01-.21-.15-.38-.36-.38h-11.84c-.22,0-.39.19-.36.41.87,5.71,7.51,49.26,10.37,68,.74,4.85,4.91,8.42,9.81,8.42h.01c4.91,0,9.08-3.59,9.83-8.44l10.37-67.97c.03-.22-.14-.41-.36-.41h-11.81c-.21,0-.38.17-.36.38.2,2.79.59,8.03.7,9.59.02.26-.16.47-.42.51l-1.51.21c-.26.04-.51-.13-.56-.39-.49-2.37-2.21-10.72-2.8-13.57-.09-.44.25-.85.7-.85h1.65c1.2-.01,15.16,0,18.79,0,.44,0,.77.39.71.83l-.24,1.54-10.79,70.75c-1.05,6.87-6.95,11.94-13.9,11.94h0c-6.95,0-12.85-5.07-13.9-11.94l-10.79-70.75Z"/>
    <path class="cls-1" d="M136.56,146.24l.24,1.54c.07.44-.27.83-.71.83h-1.56c-1.47,0-15.19,0-18.9,0-.45,0-.79-.41-.7-.85.6-2.84,2.41-11.19,2.91-13.55.05-.26.3-.43.56-.4l1.28.18c.25.03.43.25.42.5-.1,1.56-.43,6.83-.6,9.62-.01.21.15.38.36.38h11.84c.22,0,.39-.19.36-.41-.87-5.71-7.51-49.26-10.37-68-.74-4.85-4.91-8.42-9.81-8.42h-.01c-4.91,0-9.08,3.59-9.83,8.44l-10.37,67.97c-.03.22.14.41.36.41h11.81c.21,0,.38-.17.36-.38-.2-2.79-.59-8.03-.7-9.59-.02-.26.16-.47.42-.51l1.51-.21c.26-.04.51.13.56.39.49,2.37,2.21,10.72,2.8,13.57.09.44-.25.85-.7.85h-1.65c-1.2.01-15.16,0-18.79,0-.44,0-.77-.39-.71-.83l.24-1.54,10.79-70.75c1.05-6.87,6.95-11.94,13.9-11.94h0c6.95,0,12.85,5.07,13.9,11.94l10.79,70.75Z"/>
    <path class="cls-1" d="M61.83,56.54c7.78,0,14.08-6.3,14.08-14.08s-6.3-14.08-14.08-14.08-14.08,6.3-14.08,14.08,6.3,14.08,14.08,14.08ZM61.83,32.5c5.49,0,9.96,4.47,9.96,9.96s-4.47,9.96-9.96,9.96-9.96-4.47-9.96-9.96,4.47-9.96,9.96-9.96Z"/>
  </g>
  <path class="cls-1" d="M111.87,56.54c7.78,0,14.08-6.3,14.08-14.08s-6.3-14.08-14.08-14.08-14.08,6.3-14.08,14.08,6.3,14.08,14.08,14.08ZM111.87,32.5c5.49,0,9.96,4.47,9.96,9.96s-4.47,9.96-9.96,9.96-9.96-4.47-9.96-9.96,4.47-9.96,9.96-9.96Z"/>
</svg>